<svg width="144" height="144" viewBox="0 0 144 144" fill="none" xmlns="http://www.w3.org/2000/svg">
<rect width="144" height="144" rx="24" fill="url(#paint0_radial_858_3072)"/>
<path d="M135.784 75.6446L135.939 87.7638L89.6846 81.5362L62.0868 84.5079L35.3417 81.4329L8.75167 84.5854L8.72583 81.5104L35.3676 77.5826V64.1713L62.2935 70.7348L62.3452 81.2778L89.4779 77.686L89.4004 64.1972L135.784 75.6446Z" fill="white"/>
<path d="M89.4778 86.0325L135.888 90.8388V102.726H8.64825L8.51904 99.573H35.2641C35.2641 99.573 35.2641 90.7355 35.2641 86.0583C44.2567 86.9369 62.0867 88.6941 62.0867 88.6941V99.2629H89.4778V86.0325Z" fill="white"/>
<path d="M62.2934 66.8846L62.2158 63.6286C62.2158 63.6286 79.8133 58.3571 88.9092 55.6697C88.9092 51.3026 88.9092 47.0906 88.9092 42C104.879 48.4085 120.228 54.6102 135.733 60.8378C135.733 64.7139 135.733 68.435 135.733 72.5695C119.841 68.2024 104.284 63.9129 89.1676 59.7525C79.9684 62.2074 62.2934 66.8846 62.2934 66.8846Z" fill="white"/>
<path d="M35.3962 81.7073L8.80612 84.8598L8.78027 81.7848L35.422 77.857V64.4457L62.348 71.0093L62.3996 81.5522L89.5323 77.9604L89.4548 64.4716L135.839 75.919L135.994 88.0382L89.7391 81.8106L62.1412 84.7823L35.3962 81.7073Z" fill="white"/>
<path d="M89.5323 86.3069L135.942 91.1133V103H8.7027L8.57349 99.8474H35.3186C35.3186 99.8474 35.3186 91.0099 35.3186 86.3328C44.3111 87.2114 62.1412 88.9685 62.1412 88.9685V99.5373H89.5323V86.3069Z" fill="white"/>
<path d="M62.3483 67.159L62.2708 63.9031C62.2708 63.9031 79.8682 58.6316 88.9642 55.9442C88.9642 51.5771 88.9642 47.3651 88.9642 42.2744C104.934 48.6829 120.283 54.8847 135.787 61.1123C135.787 64.9884 135.787 68.7094 135.787 72.8439C119.895 68.4769 104.339 64.1873 89.2226 60.027C80.0233 62.4818 62.3483 67.159 62.3483 67.159Z" fill="white"/>
<defs>
<radialGradient id="paint0_radial_858_3072" cx="0" cy="0" r="1" gradientUnits="userSpaceOnUse" gradientTransform="translate(-29.5 -18) rotate(39.6963) scale(302.168 275.271)">
<stop stop-color="#BEDDFF"/>
<stop offset="0.259615" stop-color="#9ECCFD"/>
<stop offset="0.591346" stop-color="#3F9AFB"/>
<stop offset="1" stop-color="#0B70E0"/>
</radialGradient>
</defs>
</svg>
