<?xml version="1.0" encoding="UTF-8" standalone="no"?>
<!DOCTYPE svg PUBLIC "-//W3C//DTD SVG 1.1//EN"
 "http://www.w3.org/Graphics/SVG/1.1/DTD/svg11.dtd">
<!-- Generated by graphviz version 14.0.5 (20251129.0259)
 -->
<!-- Pages: 1 -->
<svg width="969pt" height="4736pt"
 viewBox="0.00 0.00 969.00 4736.00" xmlns="http://www.w3.org/2000/svg" xmlns:xlink="http://www.w3.org/1999/xlink">
<g id="graph0" class="graph" transform="scale(1 1) rotate(0) translate(4 4732)">
<polygon fill="white" stroke="none" points="-4,4 -4,-4732 964.5,-4732 964.5,4 -4,4"/>
<!-- n40 -->
<g id="node1" class="node">
<title>n40</title>
<path fill="lightblue" stroke="black" d="M320.75,-1198C320.75,-1198 284.5,-1198 284.5,-1198 278.5,-1198 272.5,-1192 272.5,-1186 272.5,-1186 272.5,-1174 272.5,-1174 272.5,-1168 278.5,-1162 284.5,-1162 284.5,-1162 320.75,-1162 320.75,-1162 326.75,-1162 332.75,-1168 332.75,-1174 332.75,-1174 332.75,-1186 332.75,-1186 332.75,-1192 326.75,-1198 320.75,-1198"/>
<text xml:space="preserve" text-anchor="middle" x="302.62" y="-1174.95" font-family="Times,serif" font-size="14.00">bootbox</text>
</g>
<!-- n45 -->
<g id="node2" class="node">
<title>n45</title>
<path fill="lightblue" stroke="black" d="M592.5,-1052C592.5,-1052 491.75,-1052 491.75,-1052 485.75,-1052 479.75,-1046 479.75,-1040 479.75,-1040 479.75,-1028 479.75,-1028 479.75,-1022 485.75,-1016 491.75,-1016 491.75,-1016 592.5,-1016 592.5,-1016 598.5,-1016 604.5,-1022 604.5,-1028 604.5,-1028 604.5,-1040 604.5,-1040 604.5,-1046 598.5,-1052 592.5,-1052"/>
<text xml:space="preserve" text-anchor="middle" x="542.12" y="-1028.95" font-family="Times,serif" font-size="14.00">bootbox&#45;application</text>
</g>
<!-- n40&#45;&gt;n45 -->
<g id="edge2" class="edge">
<title>n40&#45;&gt;n45</title>
<path fill="none" stroke="black" d="M333.22,-1161.8C375.71,-1135.68 454.09,-1087.51 501.52,-1058.34"/>
<polygon fill="black" stroke="black" points="503.18,-1061.44 509.86,-1053.22 499.51,-1055.47 503.18,-1061.44"/>
</g>
<!-- n28 -->
<g id="node46" class="node">
<title>n28</title>
<path fill="lightblue" stroke="black" d="M772,-2402C772,-2402 718.5,-2402 718.5,-2402 712.5,-2402 706.5,-2396 706.5,-2390 706.5,-2390 706.5,-2378 706.5,-2378 706.5,-2372 712.5,-2366 718.5,-2366 718.5,-2366 772,-2366 772,-2366 778,-2366 784,-2372 784,-2378 784,-2378 784,-2390 784,-2390 784,-2396 778,-2402 772,-2402"/>
<text xml:space="preserve" text-anchor="middle" x="745.25" y="-2378.95" font-family="Times,serif" font-size="14.00">networking</text>
</g>
<!-- n40&#45;&gt;n28 -->
<g id="edge1" class="edge">
<title>n40&#45;&gt;n28</title>
<path fill="none" stroke="black" d="M332.95,-1173.04C395.28,-1160.17 541.51,-1140.55 618,-1218 700.48,-1301.52 736.81,-2180.65 743.2,-2354.3"/>
<polygon fill="black" stroke="black" points="739.71,-2354.4 743.57,-2364.27 746.7,-2354.15 739.71,-2354.4"/>
</g>
<!-- n45&#45;&gt;n28 -->
<g id="edge3" class="edge">
<title>n45&#45;&gt;n28</title>
<path fill="none" stroke="black" d="M588.73,-1052.35C600.05,-1059.07 610.96,-1067.84 618,-1079 688.44,-1190.6 734.87,-2171.05 742.98,-2354.5"/>
<polygon fill="black" stroke="black" points="739.48,-2354.51 743.41,-2364.35 746.47,-2354.21 739.48,-2354.51"/>
</g>
<!-- n64 -->
<g id="node3" class="node">
<title>n64</title>
<path fill="lightblue" stroke="black" d="M348.88,-1527C348.88,-1527 256.38,-1527 256.38,-1527 250.38,-1527 244.38,-1521 244.38,-1515 244.38,-1515 244.38,-1503 244.38,-1503 244.38,-1497 250.38,-1491 256.38,-1491 256.38,-1491 348.88,-1491 348.88,-1491 354.88,-1491 360.88,-1497 360.88,-1503 360.88,-1503 360.88,-1515 360.88,-1515 360.88,-1521 354.88,-1527 348.88,-1527"/>
<text xml:space="preserve" text-anchor="middle" x="302.62" y="-1503.95" font-family="Times,serif" font-size="14.00">bucket&#45;application</text>
</g>
<!-- n64&#45;&gt;n28 -->
<g id="edge4" class="edge">
<title>n64&#45;&gt;n28</title>
<path fill="none" stroke="black" d="M361.06,-1519.15C433.04,-1535.06 554.62,-1573.06 618,-1656 704.32,-1768.95 735.81,-2232 742.7,-2354.28"/>
<polygon fill="black" stroke="black" points="739.2,-2354.34 743.24,-2364.13 746.19,-2353.95 739.2,-2354.34"/>
</g>
<!-- n29 -->
<g id="node48" class="node">
<title>n29</title>
<path fill="lightblue" stroke="black" d="M602.62,-1490C602.62,-1490 481.62,-1490 481.62,-1490 475.62,-1490 469.62,-1484 469.62,-1478 469.62,-1478 469.62,-1466 469.62,-1466 469.62,-1460 475.62,-1454 481.62,-1454 481.62,-1454 602.62,-1454 602.62,-1454 608.62,-1454 614.62,-1460 614.62,-1466 614.62,-1466 614.62,-1478 614.62,-1478 614.62,-1484 608.62,-1490 602.62,-1490"/>
<text xml:space="preserve" text-anchor="middle" x="542.12" y="-1466.95" font-family="Times,serif" font-size="14.00">objectstorage&#45;controller</text>
</g>
<!-- n64&#45;&gt;n29 -->
<g id="edge5" class="edge">
<title>n64&#45;&gt;n29</title>
<path fill="none" stroke="black" d="M361.12,-1500.04C390.22,-1495.51 426.09,-1489.92 458.12,-1484.93"/>
<polygon fill="black" stroke="black" points="458.44,-1488.42 467.78,-1483.43 457.36,-1481.51 458.44,-1488.42"/>
</g>
<!-- n17 -->
<g id="node4" class="node">
<title>n17</title>
<path fill="lightblue" stroke="black" d="M574.12,-3238C574.12,-3238 510.12,-3238 510.12,-3238 504.12,-3238 498.12,-3232 498.12,-3226 498.12,-3226 498.12,-3214 498.12,-3214 498.12,-3208 504.12,-3202 510.12,-3202 510.12,-3202 574.12,-3202 574.12,-3202 580.12,-3202 586.12,-3208 586.12,-3214 586.12,-3214 586.12,-3226 586.12,-3226 586.12,-3232 580.12,-3238 574.12,-3238"/>
<text xml:space="preserve" text-anchor="middle" x="542.12" y="-3214.95" font-family="Times,serif" font-size="14.00">capi&#45;operator</text>
</g>
<!-- n17&#45;&gt;n28 -->
<g id="edge6" class="edge">
<title>n17&#45;&gt;n28</title>
<path fill="none" stroke="black" d="M586.58,-3207.54C598.44,-3202.12 610.17,-3194.53 618,-3184 711.7,-3058.04 737.99,-2543.16 743.18,-2413.66"/>
<polygon fill="black" stroke="black" points="746.67,-2414 743.56,-2403.87 739.68,-2413.73 746.67,-2414"/>
</g>
<!-- n65 -->
<g id="node5" class="node">
<title>n65</title>
<path fill="lightblue" stroke="black" d="M365,-3094C365,-3094 240.25,-3094 240.25,-3094 234.25,-3094 228.25,-3088 228.25,-3082 228.25,-3082 228.25,-3070 228.25,-3070 228.25,-3064 234.25,-3058 240.25,-3058 240.25,-3058 365,-3058 365,-3058 371,-3058 377,-3064 377,-3070 377,-3070 377,-3082 377,-3082 377,-3088 371,-3094 365,-3094"/>
<text xml:space="preserve" text-anchor="middle" x="302.62" y="-3070.95" font-family="Times,serif" font-size="14.00">capi&#45;providers&#45;bootstrap</text>
</g>
<!-- n65&#45;&gt;n17 -->
<g id="edge8" class="edge">
<title>n65&#45;&gt;n17</title>
<path fill="none" stroke="black" d="M360.52,-3094.48C372.12,-3099.36 383.92,-3105.21 394.25,-3112 432.06,-3136.87 429.33,-3157.82 466.25,-3184 472.88,-3188.7 480.23,-3193.08 487.64,-3197.05"/>
<polygon fill="black" stroke="black" points="485.9,-3200.09 496.4,-3201.51 489.08,-3193.85 485.9,-3200.09"/>
</g>
<!-- n65&#45;&gt;n28 -->
<g id="edge7" class="edge">
<title>n65&#45;&gt;n28</title>
<path fill="none" stroke="black" d="M377.37,-3067.13C449.46,-3054.47 557.01,-3024.23 618,-2953 689.46,-2869.55 730.53,-2518.26 741.35,-2413.57"/>
<polygon fill="black" stroke="black" points="744.81,-2414.13 742.34,-2403.83 737.84,-2413.42 744.81,-2414.13"/>
</g>
<!-- n1 -->
<g id="node6" class="node">
<title>n1</title>
<path fill="lightblue" stroke="black" d="M351.5,-3022C351.5,-3022 253.75,-3022 253.75,-3022 247.75,-3022 241.75,-3016 241.75,-3010 241.75,-3010 241.75,-2998 241.75,-2998 241.75,-2992 247.75,-2986 253.75,-2986 253.75,-2986 351.5,-2986 351.5,-2986 357.5,-2986 363.5,-2992 363.5,-2998 363.5,-2998 363.5,-3010 363.5,-3010 363.5,-3016 357.5,-3022 351.5,-3022"/>
<text xml:space="preserve" text-anchor="middle" x="302.62" y="-2998.95" font-family="Times,serif" font-size="14.00">capi&#45;providers&#45;core</text>
</g>
<!-- n1&#45;&gt;n17 -->
<g id="edge10" class="edge">
<title>n1&#45;&gt;n17</title>
<path fill="none" stroke="black" d="M363.8,-3020.71C374.79,-3025.66 385.52,-3031.99 394.25,-3040 446.96,-3088.39 415.26,-3133.8 466.25,-3184 472.54,-3190.19 480.09,-3195.48 487.96,-3199.94"/>
<polygon fill="black" stroke="black" points="486.17,-3202.96 496.66,-3204.46 489.4,-3196.75 486.17,-3202.96"/>
</g>
<!-- n1&#45;&gt;n28 -->
<g id="edge9" class="edge">
<title>n1&#45;&gt;n28</title>
<path fill="none" stroke="black" d="M363.76,-2989.39C444.93,-2968.5 583.4,-2928.38 618,-2890 683.05,-2817.86 727.75,-2511.17 740.51,-2413.8"/>
<polygon fill="black" stroke="black" points="743.97,-2414.35 741.78,-2403.99 737.03,-2413.46 743.97,-2414.35"/>
</g>
<!-- n58 -->
<g id="node7" class="node">
<title>n58</title>
<path fill="lightblue" stroke="black" d="M369.12,-3166C369.12,-3166 236.12,-3166 236.12,-3166 230.12,-3166 224.12,-3160 224.12,-3154 224.12,-3154 224.12,-3142 224.12,-3142 224.12,-3136 230.12,-3130 236.12,-3130 236.12,-3130 369.12,-3130 369.12,-3130 375.12,-3130 381.12,-3136 381.12,-3142 381.12,-3142 381.12,-3154 381.12,-3154 381.12,-3160 375.12,-3166 369.12,-3166"/>
<text xml:space="preserve" text-anchor="middle" x="302.62" y="-3142.95" font-family="Times,serif" font-size="14.00">capi&#45;providers&#45;cpprovider</text>
</g>
<!-- n58&#45;&gt;n17 -->
<g id="edge12" class="edge">
<title>n58&#45;&gt;n17</title>
<path fill="none" stroke="black" d="M364.48,-3166.45C402.22,-3177.89 450.29,-3192.46 486.75,-3203.52"/>
<polygon fill="black" stroke="black" points="485.64,-3206.84 496.22,-3206.39 487.67,-3200.14 485.64,-3206.84"/>
</g>
<!-- n41 -->
<g id="node31" class="node">
<title>n41</title>
<path fill="lightblue" stroke="black" d="M557.12,-3166C557.12,-3166 527.12,-3166 527.12,-3166 521.12,-3166 515.12,-3160 515.12,-3154 515.12,-3154 515.12,-3142 515.12,-3142 515.12,-3136 521.12,-3130 527.12,-3130 527.12,-3130 557.12,-3130 557.12,-3130 563.12,-3130 569.12,-3136 569.12,-3142 569.12,-3142 569.12,-3154 569.12,-3154 569.12,-3160 563.12,-3166 557.12,-3166"/>
<text xml:space="preserve" text-anchor="middle" x="542.12" y="-3142.95" font-family="Times,serif" font-size="14.00">kamaji</text>
</g>
<!-- n58&#45;&gt;n41 -->
<g id="edge13" class="edge">
<title>n58&#45;&gt;n41</title>
<path fill="none" stroke="black" d="M381.39,-3148C422.36,-3148 470.74,-3148 503.44,-3148"/>
<polygon fill="black" stroke="black" points="503.22,-3151.5 513.22,-3148 503.22,-3144.5 503.22,-3151.5"/>
</g>
<!-- n58&#45;&gt;n28 -->
<g id="edge11" class="edge">
<title>n58&#45;&gt;n28</title>
<path fill="none" stroke="black" d="M372.87,-3129.58C455.25,-3106.28 585.71,-3064.54 618,-3026 698.07,-2930.44 733.65,-2526.76 742.17,-2413.6"/>
<polygon fill="black" stroke="black" points="745.63,-2414.16 742.88,-2403.93 738.65,-2413.64 745.63,-2414.16"/>
</g>
<!-- n22 -->
<g id="node8" class="node">
<title>n22</title>
<path fill="lightblue" stroke="black" d="M375.5,-3238C375.5,-3238 229.75,-3238 229.75,-3238 223.75,-3238 217.75,-3232 217.75,-3226 217.75,-3226 217.75,-3214 217.75,-3214 217.75,-3208 223.75,-3202 229.75,-3202 229.75,-3202 375.5,-3202 375.5,-3202 381.5,-3202 387.5,-3208 387.5,-3214 387.5,-3214 387.5,-3226 387.5,-3226 387.5,-3232 381.5,-3238 375.5,-3238"/>
<text xml:space="preserve" text-anchor="middle" x="302.62" y="-3214.95" font-family="Times,serif" font-size="14.00">capi&#45;providers&#45;infraprovider</text>
</g>
<!-- n22&#45;&gt;n17 -->
<g id="edge15" class="edge">
<title>n22&#45;&gt;n17</title>
<path fill="none" stroke="black" d="M387.69,-3220C420.56,-3220 457.31,-3220 486.61,-3220"/>
<polygon fill="black" stroke="black" points="486.34,-3223.5 496.34,-3220 486.34,-3216.5 486.34,-3223.5"/>
</g>
<!-- n61 -->
<g id="node35" class="node">
<title>n61</title>
<path fill="lightblue" stroke="black" d="M560.62,-2438C560.62,-2438 523.62,-2438 523.62,-2438 517.62,-2438 511.62,-2432 511.62,-2426 511.62,-2426 511.62,-2414 511.62,-2414 511.62,-2408 517.62,-2402 523.62,-2402 523.62,-2402 560.62,-2402 560.62,-2402 566.62,-2402 572.62,-2408 572.62,-2414 572.62,-2414 572.62,-2426 572.62,-2426 572.62,-2432 566.62,-2438 560.62,-2438"/>
<text xml:space="preserve" text-anchor="middle" x="542.12" y="-2414.95" font-family="Times,serif" font-size="14.00">kubevirt</text>
</g>
<!-- n22&#45;&gt;n61 -->
<g id="edge16" class="edge">
<title>n22&#45;&gt;n61</title>
<path fill="none" stroke="black" d="M373.5,-3201.71C381.47,-3197.08 388.71,-3191.27 394.25,-3184 482.87,-3067.71 415.61,-2667.16 466.25,-2530 477.75,-2498.85 499.94,-2468 517.19,-2446.94"/>
<polygon fill="black" stroke="black" points="519.75,-2449.33 523.5,-2439.42 514.39,-2444.83 519.75,-2449.33"/>
</g>
<!-- n22&#45;&gt;n28 -->
<g id="edge14" class="edge">
<title>n22&#45;&gt;n28</title>
<path fill="none" stroke="black" d="M337.3,-3238.32C400.58,-3269.98 538.04,-3325.21 618,-3256 683.53,-3199.28 731.98,-2559.6 742.23,-2413.56"/>
<polygon fill="black" stroke="black" points="745.7,-2414.17 742.9,-2403.95 738.72,-2413.68 745.7,-2414.17"/>
</g>
<!-- n13 -->
<g id="node9" class="node">
<title>n13</title>
<path fill="lightblue" stroke="black" d="M948.5,-1710C948.5,-1710 884.5,-1710 884.5,-1710 878.5,-1710 872.5,-1704 872.5,-1698 872.5,-1698 872.5,-1686 872.5,-1686 872.5,-1680 878.5,-1674 884.5,-1674 884.5,-1674 948.5,-1674 948.5,-1674 954.5,-1674 960.5,-1680 960.5,-1686 960.5,-1686 960.5,-1698 960.5,-1698 960.5,-1704 954.5,-1710 948.5,-1710"/>
<text xml:space="preserve" text-anchor="middle" x="916.5" y="-1686.95" font-family="Times,serif" font-size="14.00">cert&#45;manager</text>
</g>
<!-- n13&#45;&gt;n28 -->
<g id="edge17" class="edge">
<title>n13&#45;&gt;n28</title>
<path fill="none" stroke="black" d="M911.03,-1710.28C887.91,-1804.81 781.9,-2238.22 753.35,-2354.97"/>
<polygon fill="black" stroke="black" points="750.03,-2353.83 751.05,-2364.38 756.83,-2355.49 750.03,-2353.83"/>
</g>
<!-- n51 -->
<g id="node10" class="node">
<title>n51</title>
<path fill="lightblue" stroke="black" d="M359.75,-36C359.75,-36 245.5,-36 245.5,-36 239.5,-36 233.5,-30 233.5,-24 233.5,-24 233.5,-12 233.5,-12 233.5,-6 239.5,0 245.5,0 245.5,0 359.75,0 359.75,0 365.75,0 371.75,-6 371.75,-12 371.75,-12 371.75,-24 371.75,-24 371.75,-30 365.75,-36 359.75,-36"/>
<text xml:space="preserve" text-anchor="middle" x="302.62" y="-12.95" font-family="Times,serif" font-size="14.00">clickhouse&#45;application</text>
</g>
<!-- n50 -->
<g id="node11" class="node">
<title>n50</title>
<path fill="lightblue" stroke="black" d="M591.75,-36C591.75,-36 492.5,-36 492.5,-36 486.5,-36 480.5,-30 480.5,-24 480.5,-24 480.5,-12 480.5,-12 480.5,-6 486.5,0 492.5,0 492.5,0 591.75,0 591.75,0 597.75,0 603.75,-6 603.75,-12 603.75,-12 603.75,-24 603.75,-24 603.75,-30 597.75,-36 591.75,-36"/>
<text xml:space="preserve" text-anchor="middle" x="542.12" y="-12.95" font-family="Times,serif" font-size="14.00">clickhouse&#45;operator</text>
</g>
<!-- n51&#45;&gt;n50 -->
<g id="edge18" class="edge">
<title>n51&#45;&gt;n50</title>
<path fill="none" stroke="black" d="M372,-18C402.39,-18 438.18,-18 469,-18"/>
<polygon fill="black" stroke="black" points="468.59,-21.5 478.59,-18 468.59,-14.5 468.59,-21.5"/>
</g>
<!-- n36 -->
<g id="node14" class="node">
<title>n36</title>
<path fill="lightblue" stroke="black" d="M781.75,-36C781.75,-36 708.75,-36 708.75,-36 702.75,-36 696.75,-30 696.75,-24 696.75,-24 696.75,-12 696.75,-12 696.75,-6 702.75,0 708.75,0 708.75,0 781.75,0 781.75,0 787.75,0 793.75,-6 793.75,-12 793.75,-12 793.75,-24 793.75,-24 793.75,-30 787.75,-36 781.75,-36"/>
<text xml:space="preserve" text-anchor="middle" x="745.25" y="-12.95" font-family="Times,serif" font-size="14.00">cozystack&#45;core</text>
</g>
<!-- n50&#45;&gt;n36 -->
<g id="edge21" class="edge">
<title>n50&#45;&gt;n36</title>
<path fill="none" stroke="black" d="M604.01,-18C629.68,-18 659.46,-18 684.95,-18"/>
<polygon fill="black" stroke="black" points="684.82,-21.5 694.82,-18 684.82,-14.5 684.82,-21.5"/>
</g>
<!-- n35 -->
<g id="node40" class="node">
<title>n35</title>
<path fill="lightblue" stroke="black" d="M771.62,-1073C771.62,-1073 718.88,-1073 718.88,-1073 712.88,-1073 706.88,-1067 706.88,-1061 706.88,-1061 706.88,-1049 706.88,-1049 706.88,-1043 712.88,-1037 718.88,-1037 718.88,-1037 771.62,-1037 771.62,-1037 777.62,-1037 783.62,-1043 783.62,-1049 783.62,-1049 783.62,-1061 783.62,-1061 783.62,-1067 777.62,-1073 771.62,-1073"/>
<text xml:space="preserve" text-anchor="middle" x="745.25" y="-1049.95" font-family="Times,serif" font-size="14.00">monitoring</text>
</g>
<!-- n50&#45;&gt;n35 -->
<g id="edge20" class="edge">
<title>n50&#45;&gt;n35</title>
<path fill="none" stroke="black" d="M558.3,-36.46C575.78,-58.79 603.89,-98.24 618,-137 739.06,-469.52 745.29,-908.36 744.65,-1025.32"/>
<polygon fill="black" stroke="black" points="741.15,-1024.97 744.57,-1034.99 748.15,-1025.02 741.15,-1024.97"/>
</g>
<!-- n50&#45;&gt;n28 -->
<g id="edge19" class="edge">
<title>n50&#45;&gt;n28</title>
<path fill="none" stroke="black" d="M553.01,-36.4C569.85,-68.8 603.68,-138.59 618,-202 667.58,-421.53 733.7,-2108.23 743.12,-2354.13"/>
<polygon fill="black" stroke="black" points="739.62,-2354.26 743.5,-2364.12 746.61,-2354 739.62,-2354.26"/>
</g>
<!-- n52 -->
<g id="node12" class="node">
<title>n52</title>
<path fill="lightblue" stroke="black" d="M568.88,-1928C568.88,-1928 515.38,-1928 515.38,-1928 509.38,-1928 503.38,-1922 503.38,-1916 503.38,-1916 503.38,-1904 503.38,-1904 503.38,-1898 509.38,-1892 515.38,-1892 515.38,-1892 568.88,-1892 568.88,-1892 574.88,-1892 580.88,-1898 580.88,-1904 580.88,-1904 580.88,-1916 580.88,-1916 580.88,-1922 574.88,-1928 568.88,-1928"/>
<text xml:space="preserve" text-anchor="middle" x="542.12" y="-1904.95" font-family="Times,serif" font-size="14.00">cozy&#45;proxy</text>
</g>
<!-- n52&#45;&gt;n28 -->
<g id="edge22" class="edge">
<title>n52&#45;&gt;n28</title>
<path fill="none" stroke="black" d="M581.12,-1921.05C594.42,-1926.61 608.41,-1934.65 618,-1946 723.22,-2070.5 740.85,-2278.21 743.72,-2354.63"/>
<polygon fill="black" stroke="black" points="740.21,-2354.33 744.02,-2364.22 747.21,-2354.12 740.21,-2354.33"/>
</g>
<!-- n9 -->
<g id="node13" class="node">
<title>n9</title>
<path fill="lightblue" stroke="black" d="M325.25,-3477C325.25,-3477 280,-3477 280,-3477 274,-3477 268,-3471 268,-3465 268,-3465 268,-3453 268,-3453 268,-3447 274,-3441 280,-3441 280,-3441 325.25,-3441 325.25,-3441 331.25,-3441 337.25,-3447 337.25,-3453 337.25,-3453 337.25,-3465 337.25,-3465 337.25,-3471 331.25,-3477 325.25,-3477"/>
<text xml:space="preserve" text-anchor="middle" x="302.62" y="-3453.95" font-family="Times,serif" font-size="14.00">cozystack</text>
</g>
<!-- n10 -->
<g id="node32" class="node">
<title>n10</title>
<path fill="lightblue" stroke="black" d="M562.5,-3568C562.5,-3568 521.75,-3568 521.75,-3568 515.75,-3568 509.75,-3562 509.75,-3556 509.75,-3556 509.75,-3544 509.75,-3544 509.75,-3538 515.75,-3532 521.75,-3532 521.75,-3532 562.5,-3532 562.5,-3532 568.5,-3532 574.5,-3538 574.5,-3544 574.5,-3544 574.5,-3556 574.5,-3556 574.5,-3562 568.5,-3568 562.5,-3568"/>
<text xml:space="preserve" text-anchor="middle" x="542.12" y="-3544.95" font-family="Times,serif" font-size="14.00">keycloak</text>
</g>
<!-- n9&#45;&gt;n10 -->
<g id="edge25" class="edge">
<title>n9&#45;&gt;n10</title>
<path fill="none" stroke="black" d="M337.65,-3472.04C380.16,-3488.33 452.9,-3516.2 498.91,-3533.83"/>
<polygon fill="black" stroke="black" points="497.43,-3537.01 508.02,-3537.32 499.94,-3530.47 497.43,-3537.01"/>
</g>
<!-- n9&#45;&gt;n28 -->
<g id="edge23" class="edge">
<title>n9&#45;&gt;n28</title>
<path fill="none" stroke="black" d="M337.59,-3453.33C402.63,-3452.17 544.76,-3456.07 618,-3377 685.94,-3303.64 732.36,-2571.18 742.27,-2413.53"/>
<polygon fill="black" stroke="black" points="745.74,-2414.11 742.87,-2403.91 738.75,-2413.67 745.74,-2414.11"/>
</g>
<!-- n9&#45;&gt;n28 -->
<g id="edge24" class="edge">
<title>n9&#45;&gt;n28</title>
<path fill="none" stroke="black" d="M337.59,-3473.78C402.63,-3488.17 544.76,-3492.07 618,-3413 687.41,-3338.06 734.35,-2575.3 742.86,-2413.71"/>
<polygon fill="black" stroke="black" points="746.35,-2414.01 743.37,-2403.84 739.36,-2413.65 746.35,-2414.01"/>
</g>
<!-- n7 -->
<g id="node15" class="node">
<title>n7</title>
<path fill="lightblue" stroke="black" d="M581.62,-764C581.62,-764 502.62,-764 502.62,-764 496.62,-764 490.62,-758 490.62,-752 490.62,-752 490.62,-740 490.62,-740 490.62,-734 496.62,-728 502.62,-728 502.62,-728 581.62,-728 581.62,-728 587.62,-728 593.62,-734 593.62,-740 593.62,-740 593.62,-752 593.62,-752 593.62,-758 587.62,-764 581.62,-764"/>
<text xml:space="preserve" text-anchor="middle" x="542.12" y="-740.95" font-family="Times,serif" font-size="14.00">etcd&#45;application</text>
</g>
<!-- n7&#45;&gt;n28 -->
<g id="edge26" class="edge">
<title>n7&#45;&gt;n28</title>
<path fill="none" stroke="black" d="M594.08,-761.57C603.4,-766.65 612.05,-773.31 618,-782 710.32,-916.77 739.39,-2145.89 743.67,-2354.1"/>
<polygon fill="black" stroke="black" points="740.17,-2354.12 743.87,-2364.05 747.17,-2353.98 740.17,-2354.12"/>
</g>
<!-- n18 -->
<g id="node16" class="node">
<title>n18</title>
<path fill="lightblue" stroke="black" d="M574.12,-256C574.12,-256 510.12,-256 510.12,-256 504.12,-256 498.12,-250 498.12,-244 498.12,-244 498.12,-232 498.12,-232 498.12,-226 504.12,-220 510.12,-220 510.12,-220 574.12,-220 574.12,-220 580.12,-220 586.12,-226 586.12,-232 586.12,-232 586.12,-244 586.12,-244 586.12,-250 580.12,-256 574.12,-256"/>
<text xml:space="preserve" text-anchor="middle" x="542.12" y="-232.95" font-family="Times,serif" font-size="14.00">etcd&#45;operator</text>
</g>
<!-- n18&#45;&gt;n13 -->
<g id="edge28" class="edge">
<title>n18&#45;&gt;n13</title>
<path fill="none" stroke="black" d="M586.53,-248.88C646.31,-266.41 752.08,-307.1 800.5,-385 870.21,-497.17 908,-1478.8 914.49,-1662.46"/>
<polygon fill="black" stroke="black" points="910.99,-1662.46 914.83,-1672.33 917.98,-1662.21 910.99,-1662.46"/>
</g>
<!-- n18&#45;&gt;n28 -->
<g id="edge27" class="edge">
<title>n18&#45;&gt;n28</title>
<path fill="none" stroke="black" d="M586.44,-249.65C598.6,-255.07 610.52,-262.86 618,-274 648.41,-319.29 731.3,-2101.91 742.9,-2354.38"/>
<polygon fill="black" stroke="black" points="739.38,-2354.2 743.34,-2364.03 746.38,-2353.88 739.38,-2354.2"/>
</g>
<!-- n53 -->
<g id="node17" class="node">
<title>n53</title>
<path fill="lightblue" stroke="black" d="M571.5,-1344C571.5,-1344 512.75,-1344 512.75,-1344 506.75,-1344 500.75,-1338 500.75,-1332 500.75,-1332 500.75,-1320 500.75,-1320 500.75,-1314 506.75,-1308 512.75,-1308 512.75,-1308 571.5,-1308 571.5,-1308 577.5,-1308 583.5,-1314 583.5,-1320 583.5,-1320 583.5,-1332 583.5,-1332 583.5,-1338 577.5,-1344 571.5,-1344"/>
<text xml:space="preserve" text-anchor="middle" x="542.12" y="-1320.95" font-family="Times,serif" font-size="14.00">external&#45;dns</text>
</g>
<!-- n53&#45;&gt;n28 -->
<g id="edge29" class="edge">
<title>n53&#45;&gt;n28</title>
<path fill="none" stroke="black" d="M583.83,-1341.82C596.76,-1348.83 609.81,-1358.41 618,-1371 727.64,-1539.51 742.1,-2204.94 743.98,-2354.19"/>
<polygon fill="black" stroke="black" points="740.47,-2354.05 744.09,-2364.01 747.47,-2353.97 740.47,-2354.05"/>
</g>
<!-- n46 -->
<g id="node18" class="node">
<title>n46</title>
<path fill="lightblue" stroke="black" d="M605.25,-4582C605.25,-4582 479,-4582 479,-4582 473,-4582 467,-4576 467,-4570 467,-4570 467,-4558 467,-4558 467,-4552 473,-4546 479,-4546 479,-4546 605.25,-4546 605.25,-4546 611.25,-4546 617.25,-4552 617.25,-4558 617.25,-4558 617.25,-4570 617.25,-4570 617.25,-4576 611.25,-4582 605.25,-4582"/>
<text xml:space="preserve" text-anchor="middle" x="542.12" y="-4558.95" font-family="Times,serif" font-size="14.00">external&#45;secrets&#45;operator</text>
</g>
<!-- n46&#45;&gt;n28 -->
<g id="edge30" class="edge">
<title>n46&#45;&gt;n28</title>
<path fill="none" stroke="black" d="M599.11,-4545.65C606.51,-4540.98 613.18,-4535.19 618,-4528 648.89,-4481.94 731.45,-2668.76 742.92,-2413.7"/>
<polygon fill="black" stroke="black" points="746.41,-2414.09 743.36,-2403.95 739.41,-2413.78 746.41,-2414.09"/>
</g>
<!-- n8 -->
<g id="node19" class="node">
<title>n8</title>
<path fill="lightblue" stroke="black" d="M591.75,-4510C591.75,-4510 492.5,-4510 492.5,-4510 486.5,-4510 480.5,-4504 480.5,-4498 480.5,-4498 480.5,-4486 480.5,-4486 480.5,-4480 486.5,-4474 492.5,-4474 492.5,-4474 591.75,-4474 591.75,-4474 597.75,-4474 603.75,-4480 603.75,-4486 603.75,-4486 603.75,-4498 603.75,-4498 603.75,-4504 597.75,-4510 591.75,-4510"/>
<text xml:space="preserve" text-anchor="middle" x="542.12" y="-4486.95" font-family="Times,serif" font-size="14.00">ferretdb&#45;application</text>
</g>
<!-- n8&#45;&gt;n28 -->
<g id="edge31" class="edge">
<title>n8&#45;&gt;n28</title>
<path fill="none" stroke="black" d="M599.1,-4473.64C606.5,-4468.98 613.17,-4463.18 618,-4456 647.85,-4411.58 731.05,-2664.56 742.85,-2413.84"/>
<polygon fill="black" stroke="black" points="746.34,-2414.1 743.32,-2403.95 739.35,-2413.78 746.34,-2414.1"/>
</g>
<!-- n23 -->
<g id="node20" class="node">
<title>n23</title>
<path fill="lightblue" stroke="black" d="M366.88,-4691C366.88,-4691 238.38,-4691 238.38,-4691 232.38,-4691 226.38,-4685 226.38,-4679 226.38,-4679 226.38,-4667 226.38,-4667 226.38,-4661 232.38,-4655 238.38,-4655 238.38,-4655 366.88,-4655 366.88,-4655 372.88,-4655 378.88,-4661 378.88,-4667 378.88,-4667 378.88,-4679 378.88,-4679 378.88,-4685 372.88,-4691 366.88,-4691"/>
<text xml:space="preserve" text-anchor="middle" x="302.62" y="-4667.95" font-family="Times,serif" font-size="14.00">foundationdb&#45;application</text>
</g>
<!-- n14 -->
<g id="node21" class="node">
<title>n14</title>
<path fill="lightblue" stroke="black" d="M598.88,-4728C598.88,-4728 485.38,-4728 485.38,-4728 479.38,-4728 473.38,-4722 473.38,-4716 473.38,-4716 473.38,-4704 473.38,-4704 473.38,-4698 479.38,-4692 485.38,-4692 485.38,-4692 598.88,-4692 598.88,-4692 604.88,-4692 610.88,-4698 610.88,-4704 610.88,-4704 610.88,-4716 610.88,-4716 610.88,-4722 604.88,-4728 598.88,-4728"/>
<text xml:space="preserve" text-anchor="middle" x="542.12" y="-4704.95" font-family="Times,serif" font-size="14.00">foundationdb&#45;operator</text>
</g>
<!-- n23&#45;&gt;n14 -->
<g id="edge33" class="edge">
<title>n23&#45;&gt;n14</title>
<path fill="none" stroke="black" d="M379.1,-4684.76C405.48,-4688.87 435.17,-4693.49 461.85,-4697.65"/>
<polygon fill="black" stroke="black" points="461.17,-4701.09 471.59,-4699.17 462.25,-4694.17 461.17,-4701.09"/>
</g>
<!-- n23&#45;&gt;n28 -->
<g id="edge32" class="edge">
<title>n23&#45;&gt;n28</title>
<path fill="none" stroke="black" d="M379.08,-4678.84C452.23,-4679.92 560.35,-4668.47 618,-4600 636.49,-4578.03 730.08,-2674.17 742.81,-2413.46"/>
<polygon fill="black" stroke="black" points="746.29,-2413.97 743.29,-2403.81 739.3,-2413.63 746.29,-2413.97"/>
</g>
<!-- n14&#45;&gt;n13 -->
<g id="edge35" class="edge">
<title>n14&#45;&gt;n13</title>
<path fill="none" stroke="black" d="M587.82,-4691.54C599.28,-4684.79 610.48,-4676.03 618,-4665 892.06,-4263.2 745.13,-4069.2 800.5,-3586 887.03,-2830.92 911,-1898.52 914.89,-1721.69"/>
<polygon fill="black" stroke="black" points="918.39,-1721.86 915.1,-1711.79 911.39,-1721.71 918.39,-1721.86"/>
</g>
<!-- n14&#45;&gt;n28 -->
<g id="edge34" class="edge">
<title>n14&#45;&gt;n28</title>
<path fill="none" stroke="black" d="M589.42,-4691.6C600.61,-4684.91 611.27,-4676.17 618,-4665 633.27,-4639.67 729.74,-2680.29 742.79,-2413.87"/>
<polygon fill="black" stroke="black" points="746.28,-2414.15 743.27,-2403.99 739.29,-2413.81 746.28,-2414.15"/>
</g>
<!-- n37 -->
<g id="node22" class="node">
<title>n37</title>
<path fill="lightblue" stroke="black" d="M567.38,-1856C567.38,-1856 516.88,-1856 516.88,-1856 510.88,-1856 504.88,-1850 504.88,-1844 504.88,-1844 504.88,-1832 504.88,-1832 504.88,-1826 510.88,-1820 516.88,-1820 516.88,-1820 567.38,-1820 567.38,-1820 573.38,-1820 579.38,-1826 579.38,-1832 579.38,-1832 579.38,-1844 579.38,-1844 579.38,-1850 573.38,-1856 567.38,-1856"/>
<text xml:space="preserve" text-anchor="middle" x="542.12" y="-1832.95" font-family="Times,serif" font-size="14.00">goldpinger</text>
</g>
<!-- n24 -->
<g id="node41" class="node">
<title>n24</title>
<path fill="lightblue" stroke="black" d="M348.5,-1856C348.5,-1856 256.75,-1856 256.75,-1856 250.75,-1856 244.75,-1850 244.75,-1844 244.75,-1844 244.75,-1832 244.75,-1832 244.75,-1826 250.75,-1820 256.75,-1820 256.75,-1820 348.5,-1820 348.5,-1820 354.5,-1820 360.5,-1826 360.5,-1832 360.5,-1832 360.5,-1844 360.5,-1844 360.5,-1850 354.5,-1856 348.5,-1856"/>
<text xml:space="preserve" text-anchor="middle" x="302.62" y="-1832.95" font-family="Times,serif" font-size="14.00">monitoring&#45;agents</text>
</g>
<!-- n37&#45;&gt;n24 -->
<g id="edge37" class="edge">
<title>n37&#45;&gt;n24</title>
<path fill="none" stroke="black" d="M504.39,-1848.09C469.2,-1851.68 415.22,-1852.43 372.09,-1850.36"/>
<polygon fill="black" stroke="black" points="372.5,-1846.88 362.33,-1849.82 372.12,-1853.87 372.5,-1846.88"/>
</g>
<!-- n37&#45;&gt;n28 -->
<g id="edge36" class="edge">
<title>n37&#45;&gt;n28</title>
<path fill="none" stroke="black" d="M579.8,-1848.22C593.59,-1853.77 608.26,-1862.03 618,-1874 679.74,-1949.93 726.68,-2256.87 740.25,-2354.22"/>
<polygon fill="black" stroke="black" points="736.77,-2354.6 741.6,-2364.03 743.71,-2353.64 736.77,-2354.6"/>
</g>
<!-- n42 -->
<g id="node23" class="node">
<title>n42</title>
<path fill="lightblue" stroke="black" d="M573,-4438C573,-4438 511.25,-4438 511.25,-4438 505.25,-4438 499.25,-4432 499.25,-4426 499.25,-4426 499.25,-4414 499.25,-4414 499.25,-4408 505.25,-4402 511.25,-4402 511.25,-4402 573,-4402 573,-4402 579,-4402 585,-4408 585,-4414 585,-4414 585,-4426 585,-4426 585,-4432 579,-4438 573,-4438"/>
<text xml:space="preserve" text-anchor="middle" x="542.12" y="-4414.95" font-family="Times,serif" font-size="14.00">gpu&#45;operator</text>
</g>
<!-- n42&#45;&gt;n28 -->
<g id="edge38" class="edge">
<title>n42&#45;&gt;n28</title>
<path fill="none" stroke="black" d="M585.24,-4408.85C597.8,-4403.42 610.26,-4395.48 618,-4384 646.84,-4341.19 730.74,-2658.3 742.8,-2413.56"/>
<polygon fill="black" stroke="black" points="746.28,-2414.08 743.27,-2403.92 739.29,-2413.74 746.28,-2414.08"/>
</g>
<!-- n30 -->
<g id="node24" class="node">
<title>n30</title>
<path fill="lightblue" stroke="black" d="M583.12,-4366C583.12,-4366 501.12,-4366 501.12,-4366 495.12,-4366 489.12,-4360 489.12,-4354 489.12,-4354 489.12,-4342 489.12,-4342 489.12,-4336 495.12,-4330 501.12,-4330 501.12,-4330 583.12,-4330 583.12,-4330 589.12,-4330 595.12,-4336 595.12,-4342 595.12,-4342 595.12,-4354 595.12,-4354 595.12,-4360 589.12,-4366 583.12,-4366"/>
<text xml:space="preserve" text-anchor="middle" x="542.12" y="-4342.95" font-family="Times,serif" font-size="14.00">grafana&#45;operator</text>
</g>
<!-- n30&#45;&gt;n28 -->
<g id="edge39" class="edge">
<title>n30&#45;&gt;n28</title>
<path fill="none" stroke="black" d="M595.32,-4331.85C604.19,-4326.85 612.35,-4320.37 618,-4312 645.81,-4270.82 730.34,-2653.4 742.73,-2413.59"/>
<polygon fill="black" stroke="black" points="746.21,-2414.03 743.23,-2403.86 739.22,-2413.67 746.21,-2414.03"/>
</g>
<!-- n48 -->
<g id="node25" class="node">
<title>n48</title>
<path fill="lightblue" stroke="black" d="M579.75,-4294C579.75,-4294 504.5,-4294 504.5,-4294 498.5,-4294 492.5,-4288 492.5,-4282 492.5,-4282 492.5,-4270 492.5,-4270 492.5,-4264 498.5,-4258 504.5,-4258 504.5,-4258 579.75,-4258 579.75,-4258 585.75,-4258 591.75,-4264 591.75,-4270 591.75,-4270 591.75,-4282 591.75,-4282 591.75,-4288 585.75,-4294 579.75,-4294"/>
<text xml:space="preserve" text-anchor="middle" x="542.12" y="-4270.95" font-family="Times,serif" font-size="14.00">hetzner&#45;robotlb</text>
</g>
<!-- n48&#45;&gt;n28 -->
<g id="edge40" class="edge">
<title>n48&#45;&gt;n28</title>
<path fill="none" stroke="black" d="M592.23,-4261.5C602.28,-4256.3 611.69,-4249.32 618,-4240 671.51,-4160.98 733.85,-2645.28 743.08,-2413.6"/>
<polygon fill="black" stroke="black" points="746.57,-2414.05 743.47,-2403.92 739.57,-2413.78 746.57,-2414.05"/>
</g>
<!-- n2 -->
<g id="node26" class="node">
<title>n2</title>
<path fill="lightblue" stroke="black" d="M598.5,-4222C598.5,-4222 485.75,-4222 485.75,-4222 479.75,-4222 473.75,-4216 473.75,-4210 473.75,-4210 473.75,-4198 473.75,-4198 473.75,-4192 479.75,-4186 485.75,-4186 485.75,-4186 598.5,-4186 598.5,-4186 604.5,-4186 610.5,-4192 610.5,-4198 610.5,-4198 610.5,-4210 610.5,-4210 610.5,-4216 604.5,-4222 598.5,-4222"/>
<text xml:space="preserve" text-anchor="middle" x="542.12" y="-4198.95" font-family="Times,serif" font-size="14.00">http&#45;cache&#45;application</text>
</g>
<!-- n2&#45;&gt;n28 -->
<g id="edge41" class="edge">
<title>n2&#45;&gt;n28</title>
<path fill="none" stroke="black" d="M599.04,-4185.6C606.44,-4180.94 613.14,-4175.16 618,-4168 669.47,-4092.22 733.35,-2639.62 743.01,-2413.48"/>
<polygon fill="black" stroke="black" points="746.49,-2413.92 743.42,-2403.78 739.5,-2413.62 746.49,-2413.92"/>
</g>
<!-- n66 -->
<g id="node27" class="node">
<title>n66</title>
<path fill="lightblue" stroke="black" d="M581.25,-980C581.25,-980 503,-980 503,-980 497,-980 491,-974 491,-968 491,-968 491,-956 491,-956 491,-950 497,-944 503,-944 503,-944 581.25,-944 581.25,-944 587.25,-944 593.25,-950 593.25,-956 593.25,-956 593.25,-968 593.25,-968 593.25,-974 587.25,-980 581.25,-980"/>
<text xml:space="preserve" text-anchor="middle" x="542.12" y="-956.95" font-family="Times,serif" font-size="14.00">info&#45;application</text>
</g>
<!-- n66&#45;&gt;n28 -->
<g id="edge42" class="edge">
<title>n66&#45;&gt;n28</title>
<path fill="none" stroke="black" d="M593.62,-977.42C603.09,-982.52 611.91,-989.23 618,-998 698.13,-1113.45 736.88,-2163.68 743.29,-2354.37"/>
<polygon fill="black" stroke="black" points="739.78,-2354.28 743.61,-2364.16 746.78,-2354.05 739.78,-2354.28"/>
</g>
<!-- n59 -->
<g id="node28" class="node">
<title>n59</title>
<path fill="lightblue" stroke="black" d="M589.5,-908C589.5,-908 494.75,-908 494.75,-908 488.75,-908 482.75,-902 482.75,-896 482.75,-896 482.75,-884 482.75,-884 482.75,-878 488.75,-872 494.75,-872 494.75,-872 589.5,-872 589.5,-872 595.5,-872 601.5,-878 601.5,-884 601.5,-884 601.5,-896 601.5,-896 601.5,-902 595.5,-908 589.5,-908"/>
<text xml:space="preserve" text-anchor="middle" x="542.12" y="-884.95" font-family="Times,serif" font-size="14.00">ingress&#45;application</text>
</g>
<!-- n59&#45;&gt;n28 -->
<g id="edge43" class="edge">
<title>n59&#45;&gt;n28</title>
<path fill="none" stroke="black" d="M598.94,-908.47C606.36,-913.12 613.08,-918.88 618,-926 702.2,-1047.9 737.77,-2158.02 743.43,-2354.39"/>
<polygon fill="black" stroke="black" points="739.93,-2354.33 743.71,-2364.23 746.92,-2354.13 739.93,-2354.33"/>
</g>
<!-- n4 -->
<g id="node29" class="node">
<title>n4</title>
<path fill="lightblue" stroke="black" d="M345.88,-1345C345.88,-1345 259.38,-1345 259.38,-1345 253.38,-1345 247.38,-1339 247.38,-1333 247.38,-1333 247.38,-1321 247.38,-1321 247.38,-1315 253.38,-1309 259.38,-1309 259.38,-1309 345.88,-1309 345.88,-1309 351.88,-1309 357.88,-1315 357.88,-1321 357.88,-1321 357.88,-1333 357.88,-1333 357.88,-1339 351.88,-1345 345.88,-1345"/>
<text xml:space="preserve" text-anchor="middle" x="302.62" y="-1321.95" font-family="Times,serif" font-size="14.00">kafka&#45;application</text>
</g>
<!-- n3 -->
<g id="node30" class="node">
<title>n3</title>
<path fill="lightblue" stroke="black" d="M577.88,-1272C577.88,-1272 506.38,-1272 506.38,-1272 500.38,-1272 494.38,-1266 494.38,-1260 494.38,-1260 494.38,-1248 494.38,-1248 494.38,-1242 500.38,-1236 506.38,-1236 506.38,-1236 577.88,-1236 577.88,-1236 583.88,-1236 589.88,-1242 589.88,-1248 589.88,-1248 589.88,-1260 589.88,-1260 589.88,-1266 583.88,-1272 577.88,-1272"/>
<text xml:space="preserve" text-anchor="middle" x="542.12" y="-1248.95" font-family="Times,serif" font-size="14.00">kafka&#45;operator</text>
</g>
<!-- n4&#45;&gt;n3 -->
<g id="edge45" class="edge">
<title>n4&#45;&gt;n3</title>
<path fill="none" stroke="black" d="M358.11,-1310.25C395.51,-1298.76 445.07,-1283.53 483.18,-1271.81"/>
<polygon fill="black" stroke="black" points="484.13,-1275.18 492.66,-1268.9 482.08,-1268.49 484.13,-1275.18"/>
</g>
<!-- n4&#45;&gt;n28 -->
<g id="edge44" class="edge">
<title>n4&#45;&gt;n28</title>
<path fill="none" stroke="black" d="M358.24,-1338.7C439.09,-1357.16 584.66,-1395.17 618,-1436 736.75,-1581.43 744.22,-2209.77 744.34,-2354.29"/>
<polygon fill="black" stroke="black" points="740.84,-2354.15 744.34,-2364.15 747.84,-2354.15 740.84,-2354.15"/>
</g>
<!-- n3&#45;&gt;n35 -->
<g id="edge47" class="edge">
<title>n3&#45;&gt;n35</title>
<path fill="none" stroke="black" d="M561.69,-1235.64C597.53,-1200.17 676.39,-1122.15 717.75,-1081.22"/>
<polygon fill="black" stroke="black" points="720.01,-1083.91 724.66,-1074.38 715.09,-1078.93 720.01,-1083.91"/>
</g>
<!-- n3&#45;&gt;n28 -->
<g id="edge46" class="edge">
<title>n3&#45;&gt;n28</title>
<path fill="none" stroke="black" d="M590.37,-1267.93C600.99,-1273.21 611.14,-1280.37 618,-1290 744.46,-1467.61 745.8,-2197.08 744.59,-2354.12"/>
<polygon fill="black" stroke="black" points="741.09,-2354.06 744.5,-2364.09 748.09,-2354.12 741.09,-2354.06"/>
</g>
<!-- n41&#45;&gt;n28 -->
<g id="edge48" class="edge">
<title>n41&#45;&gt;n28</title>
<path fill="none" stroke="black" d="M569.36,-3138.81C585.92,-3131.64 606.32,-3120 618,-3103 697.42,-2987.35 733.9,-2533.97 742.31,-2413.52"/>
<polygon fill="black" stroke="black" points="745.78,-2414.04 742.97,-2403.82 738.8,-2413.56 745.78,-2414.04"/>
</g>
<!-- n10&#45;&gt;n28 -->
<g id="edge49" class="edge">
<title>n10&#45;&gt;n28</title>
<path fill="none" stroke="black" d="M574.97,-3538.72C590.53,-3531.52 608,-3520.57 618,-3505 738.94,-3316.69 744.56,-2571.16 744.38,-2413.42"/>
<polygon fill="black" stroke="black" points="747.88,-2413.81 744.36,-2403.82 740.88,-2413.83 747.88,-2413.81"/>
</g>
<!-- n43 -->
<g id="node50" class="node">
<title>n43</title>
<path fill="lightblue" stroke="black" d="M788.5,-3568C788.5,-3568 702,-3568 702,-3568 696,-3568 690,-3562 690,-3556 690,-3556 690,-3544 690,-3544 690,-3538 696,-3532 702,-3532 702,-3532 788.5,-3532 788.5,-3532 794.5,-3532 800.5,-3538 800.5,-3544 800.5,-3544 800.5,-3556 800.5,-3556 800.5,-3562 794.5,-3568 788.5,-3568"/>
<text xml:space="preserve" text-anchor="middle" x="745.25" y="-3544.95" font-family="Times,serif" font-size="14.00">postgres&#45;operator</text>
</g>
<!-- n10&#45;&gt;n43 -->
<g id="edge50" class="edge">
<title>n10&#45;&gt;n43</title>
<path fill="none" stroke="black" d="M574.99,-3550C602.66,-3550 643.61,-3550 678.3,-3550"/>
<polygon fill="black" stroke="black" points="678.29,-3553.5 688.29,-3550 678.29,-3546.5 678.29,-3553.5"/>
</g>
<!-- n54 -->
<g id="node33" class="node">
<title>n54</title>
<path fill="lightblue" stroke="black" d="M587.25,-4150C587.25,-4150 497,-4150 497,-4150 491,-4150 485,-4144 485,-4138 485,-4138 485,-4126 485,-4126 485,-4120 491,-4114 497,-4114 497,-4114 587.25,-4114 587.25,-4114 593.25,-4114 599.25,-4120 599.25,-4126 599.25,-4126 599.25,-4138 599.25,-4138 599.25,-4144 593.25,-4150 587.25,-4150"/>
<text xml:space="preserve" text-anchor="middle" x="542.12" y="-4126.95" font-family="Times,serif" font-size="14.00">keycloak&#45;operator</text>
</g>
<!-- n54&#45;&gt;n28 -->
<g id="edge51" class="edge">
<title>n54&#45;&gt;n28</title>
<path fill="none" stroke="black" d="M599.02,-4113.58C606.43,-4108.93 613.13,-4103.15 618,-4096 667.41,-4023.48 732.78,-2635.05 742.91,-2413.65"/>
<polygon fill="black" stroke="black" points="746.39,-2414.02 743.35,-2403.87 739.4,-2413.7 746.39,-2414.02"/>
</g>
<!-- n15 -->
<g id="node34" class="node">
<title>n15</title>
<path fill="lightblue" stroke="black" d="M127,-3202C127,-3202 12,-3202 12,-3202 6,-3202 0,-3196 0,-3190 0,-3190 0,-3178 0,-3178 0,-3172 6,-3166 12,-3166 12,-3166 127,-3166 127,-3166 133,-3166 139,-3172 139,-3178 139,-3178 139,-3190 139,-3190 139,-3196 133,-3202 127,-3202"/>
<text xml:space="preserve" text-anchor="middle" x="69.5" y="-3178.95" font-family="Times,serif" font-size="14.00">kubernetes&#45;application</text>
</g>
<!-- n15&#45;&gt;n17 -->
<g id="edge53" class="edge">
<title>n15&#45;&gt;n17</title>
<path fill="none" stroke="black" d="M96.97,-3202.44C124.14,-3220.16 168.37,-3245.71 211,-3256 306.36,-3279.01 420.8,-3255.53 486.83,-3237.19"/>
<polygon fill="black" stroke="black" points="487.67,-3240.59 496.33,-3234.49 485.76,-3233.86 487.67,-3240.59"/>
</g>
<!-- n15&#45;&gt;n65 -->
<g id="edge54" class="edge">
<title>n15&#45;&gt;n65</title>
<path fill="none" stroke="black" d="M104.13,-3165.62C132.31,-3150.49 173.81,-3128.87 211,-3112 221.06,-3107.44 231.88,-3102.86 242.42,-3098.58"/>
<polygon fill="black" stroke="black" points="243.44,-3101.94 251.42,-3094.96 240.83,-3095.44 243.44,-3101.94"/>
</g>
<!-- n15&#45;&gt;n1 -->
<g id="edge55" class="edge">
<title>n15&#45;&gt;n1</title>
<path fill="none" stroke="black" d="M84.14,-3165.67C107.27,-3135.72 156.94,-3076.03 211,-3040 218.23,-3035.18 226.2,-3030.85 234.33,-3027"/>
<polygon fill="black" stroke="black" points="235.58,-3030.27 243.29,-3023 232.73,-3023.88 235.58,-3030.27"/>
</g>
<!-- n15&#45;&gt;n58 -->
<g id="edge56" class="edge">
<title>n15&#45;&gt;n58</title>
<path fill="none" stroke="black" d="M139.22,-3173.3C162.3,-3169.7 188.38,-3165.64 212.77,-3161.84"/>
<polygon fill="black" stroke="black" points="213.01,-3165.34 222.35,-3160.35 211.93,-3158.43 213.01,-3165.34"/>
</g>
<!-- n15&#45;&gt;n22 -->
<g id="edge57" class="edge">
<title>n15&#45;&gt;n22</title>
<path fill="none" stroke="black" d="M139.22,-3194.7C160.28,-3197.98 183.84,-3201.65 206.33,-3205.16"/>
<polygon fill="black" stroke="black" points="205.72,-3208.6 216.14,-3206.68 206.79,-3201.69 205.72,-3208.6"/>
</g>
<!-- n15&#45;&gt;n28 -->
<g id="edge52" class="edge">
<title>n15&#45;&gt;n28</title>
<path fill="none" stroke="black" d="M87.47,-3202.21C111.98,-3227.09 159.98,-3270.7 211,-3289 381.34,-3350.1 481.59,-3419.92 618,-3301 686.85,-3240.98 732.99,-2564.28 742.45,-2413.61"/>
<polygon fill="black" stroke="black" points="745.94,-2413.89 743.07,-2403.69 738.95,-2413.45 745.94,-2413.89"/>
</g>
<!-- n61&#45;&gt;n35 -->
<g id="edge59" class="edge">
<title>n61&#45;&gt;n35</title>
<path fill="none" stroke="black" d="M559.84,-2401.76C577.63,-2381.16 604.97,-2345.82 618,-2310 703.97,-2073.72 737.29,-1251.52 743.24,-1084.67"/>
<polygon fill="black" stroke="black" points="746.74,-1084.82 743.59,-1074.71 739.75,-1084.58 746.74,-1084.82"/>
</g>
<!-- n61&#45;&gt;n28 -->
<g id="edge58" class="edge">
<title>n61&#45;&gt;n28</title>
<path fill="none" stroke="black" d="M572.8,-2414.69C605.02,-2408.92 657,-2399.62 695.29,-2392.76"/>
<polygon fill="black" stroke="black" points="695.48,-2396.28 704.71,-2391.08 694.25,-2389.39 695.48,-2396.28"/>
</g>
<!-- n31 -->
<g id="node36" class="node">
<title>n31</title>
<path fill="lightblue" stroke="black" d="M571.12,-2292C571.12,-2292 513.12,-2292 513.12,-2292 507.12,-2292 501.12,-2286 501.12,-2280 501.12,-2280 501.12,-2268 501.12,-2268 501.12,-2262 507.12,-2256 513.12,-2256 513.12,-2256 571.12,-2256 571.12,-2256 577.12,-2256 583.12,-2262 583.12,-2268 583.12,-2268 583.12,-2280 583.12,-2280 583.12,-2286 577.12,-2292 571.12,-2292"/>
<text xml:space="preserve" text-anchor="middle" x="542.12" y="-2268.95" font-family="Times,serif" font-size="14.00">kubevirt&#45;cdi</text>
</g>
<!-- n31&#45;&gt;n28 -->
<g id="edge60" class="edge">
<title>n31&#45;&gt;n28</title>
<path fill="none" stroke="black" d="M576.79,-2292.41C610.72,-2310.97 663.26,-2339.71 700.43,-2360.03"/>
<polygon fill="black" stroke="black" points="698.7,-2363.07 709.15,-2364.8 702.05,-2356.93 698.7,-2363.07"/>
</g>
<!-- n55 -->
<g id="node37" class="node">
<title>n55</title>
<path fill="lightblue" stroke="black" d="M317.62,-328C317.62,-328 287.62,-328 287.62,-328 281.62,-328 275.62,-322 275.62,-316 275.62,-316 275.62,-304 275.62,-304 275.62,-298 281.62,-292 287.62,-292 287.62,-292 317.62,-292 317.62,-292 323.62,-292 329.62,-298 329.62,-304 329.62,-304 329.62,-316 329.62,-316 329.62,-322 323.62,-328 317.62,-328"/>
<text xml:space="preserve" text-anchor="middle" x="302.62" y="-304.95" font-family="Times,serif" font-size="14.00">linstor</text>
</g>
<!-- n55&#45;&gt;n13 -->
<g id="edge62" class="edge">
<title>n55&#45;&gt;n13</title>
<path fill="none" stroke="black" d="M316.95,-291.67C341.91,-259.12 399.24,-192.27 466.25,-167 613.38,-111.51 719.25,-148.37 800.5,-283 874.34,-405.34 909,-1471.15 914.66,-1662.61"/>
<polygon fill="black" stroke="black" points="911.16,-1662.53 914.95,-1672.42 918.16,-1662.33 911.16,-1662.53"/>
</g>
<!-- n55&#45;&gt;n35 -->
<g id="edge63" class="edge">
<title>n55&#45;&gt;n35</title>
<path fill="none" stroke="black" d="M323.05,-291.76C376.38,-243.89 527.12,-123.58 618,-202 745.49,-312.01 746.41,-887.37 744.75,-1025.27"/>
<polygon fill="black" stroke="black" points="741.26,-1024.98 744.62,-1035.03 748.26,-1025.07 741.26,-1024.98"/>
</g>
<!-- n55&#45;&gt;n28 -->
<g id="edge61" class="edge">
<title>n55&#45;&gt;n28</title>
<path fill="none" stroke="black" d="M317.99,-328.24C345.07,-362.06 406.36,-435.99 466.25,-490 528.31,-545.96 577.57,-527.87 618,-601 706.36,-760.85 738.97,-2134.6 743.65,-2354.39"/>
<polygon fill="black" stroke="black" points="740.14,-2354.17 743.85,-2364.09 747.14,-2354.02 740.14,-2354.17"/>
</g>
<!-- n19 -->
<g id="node55" class="node">
<title>n19</title>
<path fill="lightblue" stroke="black" d="M560.25,-472C560.25,-472 524,-472 524,-472 518,-472 512,-466 512,-460 512,-460 512,-448 512,-448 512,-442 518,-436 524,-436 524,-436 560.25,-436 560.25,-436 566.25,-436 572.25,-442 572.25,-448 572.25,-448 572.25,-460 572.25,-460 572.25,-466 566.25,-472 560.25,-472"/>
<text xml:space="preserve" text-anchor="middle" x="542.12" y="-448.95" font-family="Times,serif" font-size="14.00">reloader</text>
</g>
<!-- n55&#45;&gt;n19 -->
<g id="edge64" class="edge">
<title>n55&#45;&gt;n19</title>
<path fill="none" stroke="black" d="M328.84,-328.34C360.24,-350.78 415.87,-389.34 466.25,-418 477.48,-424.39 490.02,-430.71 501.58,-436.24"/>
<polygon fill="black" stroke="black" points="499.94,-439.34 510.48,-440.42 502.92,-433 499.94,-439.34"/>
</g>
<!-- n56 -->
<g id="node38" class="node">
<title>n56</title>
<path fill="lightblue" stroke="black" d="M585.38,-400C585.38,-400 498.88,-400 498.88,-400 492.88,-400 486.88,-394 486.88,-388 486.88,-388 486.88,-376 486.88,-376 486.88,-370 492.88,-364 498.88,-364 498.88,-364 585.38,-364 585.38,-364 591.38,-364 597.38,-370 597.38,-376 597.38,-376 597.38,-388 597.38,-388 597.38,-394 591.38,-400 585.38,-400"/>
<text xml:space="preserve" text-anchor="middle" x="542.12" y="-376.95" font-family="Times,serif" font-size="14.00">mariadb&#45;operator</text>
</g>
<!-- n56&#45;&gt;n13 -->
<g id="edge67" class="edge">
<title>n56&#45;&gt;n13</title>
<path fill="none" stroke="black" d="M595.78,-400.33C604.07,-405.06 611.9,-410.88 618,-418 799.69,-629.93 736.31,-747.33 800.5,-1019 858.6,-1264.89 899.68,-1567.89 911.8,-1662.42"/>
<polygon fill="black" stroke="black" points="908.3,-1662.65 913.03,-1672.13 915.24,-1661.76 908.3,-1662.65"/>
</g>
<!-- n56&#45;&gt;n35 -->
<g id="edge66" class="edge">
<title>n56&#45;&gt;n35</title>
<path fill="none" stroke="black" d="M597.14,-400.28C605.07,-404.99 612.43,-410.82 618,-418 693.62,-515.61 732.26,-912.52 741.84,-1025.1"/>
<polygon fill="black" stroke="black" points="738.35,-1025.35 742.67,-1035.03 745.33,-1024.77 738.35,-1025.35"/>
</g>
<!-- n56&#45;&gt;n28 -->
<g id="edge65" class="edge">
<title>n56&#45;&gt;n28</title>
<path fill="none" stroke="black" d="M597.59,-399.46C605.58,-404.27 612.84,-410.35 618,-418 674.66,-502.01 734.62,-2115.53 743.2,-2354.52"/>
<polygon fill="black" stroke="black" points="739.69,-2354.34 743.55,-2364.21 746.69,-2354.09 739.69,-2354.34"/>
</g>
<!-- n62 -->
<g id="node39" class="node">
<title>n62</title>
<path fill="lightblue" stroke="black" d="M558.75,-4078C558.75,-4078 525.5,-4078 525.5,-4078 519.5,-4078 513.5,-4072 513.5,-4066 513.5,-4066 513.5,-4054 513.5,-4054 513.5,-4048 519.5,-4042 525.5,-4042 525.5,-4042 558.75,-4042 558.75,-4042 564.75,-4042 570.75,-4048 570.75,-4054 570.75,-4054 570.75,-4066 570.75,-4066 570.75,-4072 564.75,-4078 558.75,-4078"/>
<text xml:space="preserve" text-anchor="middle" x="542.12" y="-4054.95" font-family="Times,serif" font-size="14.00">metallb</text>
</g>
<!-- n62&#45;&gt;n28 -->
<g id="edge68" class="edge">
<title>n62&#45;&gt;n28</title>
<path fill="none" stroke="black" d="M571.03,-4050.7C587.6,-4043.64 607.4,-4032.16 618,-4015 661.86,-3944.01 731.62,-2628.27 742.73,-2413.52"/>
<polygon fill="black" stroke="black" points="746.22,-2413.96 743.24,-2403.79 739.23,-2413.6 746.22,-2413.96"/>
</g>
<!-- n24&#45;&gt;n37 -->
<g id="edge71" class="edge">
<title>n24&#45;&gt;n37</title>
<path fill="none" stroke="black" d="M360.81,-1826.26C401.24,-1823.72 454.82,-1823.93 493.05,-1826.9"/>
<polygon fill="black" stroke="black" points="492.61,-1830.38 502.88,-1827.78 493.23,-1823.4 492.61,-1830.38"/>
</g>
<!-- n24&#45;&gt;n35 -->
<g id="edge70" class="edge">
<title>n24&#45;&gt;n35</title>
<path fill="none" stroke="black" d="M319.38,-1819.54C347.96,-1786.24 410.58,-1714.16 466.25,-1656 531.4,-1587.95 569.98,-1589.05 618,-1508 703.34,-1363.95 732.97,-1159.98 741.38,-1084.54"/>
<polygon fill="black" stroke="black" points="744.85,-1084.98 742.43,-1074.67 737.89,-1084.24 744.85,-1084.98"/>
</g>
<!-- n24&#45;&gt;n28 -->
<g id="edge69" class="edge">
<title>n24&#45;&gt;n28</title>
<path fill="none" stroke="black" d="M337.84,-1819.72C400.82,-1788.87 536.1,-1735.97 618,-1802 705.77,-1872.77 735.62,-2245.37 742.54,-2354.15"/>
<polygon fill="black" stroke="black" points="739.04,-2354.25 743.15,-2364.01 746.02,-2353.82 739.04,-2354.25"/>
</g>
<!-- n38 -->
<g id="node62" class="node">
<title>n38</title>
<path fill="lightblue" stroke="black" d="M600.38,-2072C600.38,-2072 483.88,-2072 483.88,-2072 477.88,-2072 471.88,-2066 471.88,-2060 471.88,-2060 471.88,-2048 471.88,-2048 471.88,-2042 477.88,-2036 483.88,-2036 483.88,-2036 600.38,-2036 600.38,-2036 606.38,-2036 612.38,-2042 612.38,-2048 612.38,-2048 612.38,-2060 612.38,-2060 612.38,-2066 606.38,-2072 600.38,-2072"/>
<text xml:space="preserve" text-anchor="middle" x="542.12" y="-2048.95" font-family="Times,serif" font-size="14.00">vertical&#45;pod&#45;autoscaler</text>
</g>
<!-- n24&#45;&gt;n38 -->
<g id="edge73" class="edge">
<title>n24&#45;&gt;n38</title>
<path fill="none" stroke="black" d="M325.42,-1856.29C354.15,-1889.5 407.9,-1956.37 466.25,-2000 481.64,-2011.51 501.3,-2020.79 516.61,-2029.58"/>
<polygon fill="black" stroke="black" points="514.76,-2032.56 525.12,-2034.82 518.43,-2026.6 514.76,-2032.56"/>
</g>
<!-- n49 -->
<g id="node63" class="node">
<title>n49</title>
<path fill="lightblue" stroke="black" d="M606,-1710C606,-1710 478.25,-1710 478.25,-1710 472.25,-1710 466.25,-1704 466.25,-1698 466.25,-1698 466.25,-1686 466.25,-1686 466.25,-1680 472.25,-1674 478.25,-1674 478.25,-1674 606,-1674 606,-1674 612,-1674 618,-1680 618,-1686 618,-1686 618,-1698 618,-1698 618,-1704 612,-1710 606,-1710"/>
<text xml:space="preserve" text-anchor="middle" x="542.12" y="-1686.95" font-family="Times,serif" font-size="14.00">victoria&#45;metrics&#45;operator</text>
</g>
<!-- n24&#45;&gt;n49 -->
<g id="edge72" class="edge">
<title>n24&#45;&gt;n49</title>
<path fill="none" stroke="black" d="M332.92,-1819.62C365.42,-1799.28 419.45,-1765.59 466.25,-1737 477.46,-1730.15 489.66,-1722.78 500.89,-1716.03"/>
<polygon fill="black" stroke="black" points="502.39,-1719.22 509.17,-1711.07 498.79,-1713.21 502.39,-1719.22"/>
</g>
<!-- n47 -->
<g id="node42" class="node">
<title>n47</title>
<path fill="lightblue" stroke="black" d="M600.75,-692C600.75,-692 483.5,-692 483.5,-692 477.5,-692 471.5,-686 471.5,-680 471.5,-680 471.5,-668 471.5,-668 471.5,-662 477.5,-656 483.5,-656 483.5,-656 600.75,-656 600.75,-656 606.75,-656 612.75,-662 612.75,-668 612.75,-668 612.75,-680 612.75,-680 612.75,-686 606.75,-692 600.75,-692"/>
<text xml:space="preserve" text-anchor="middle" x="542.12" y="-668.95" font-family="Times,serif" font-size="14.00">monitoring&#45;application</text>
</g>
<!-- n47&#45;&gt;n28 -->
<g id="edge74" class="edge">
<title>n47&#45;&gt;n28</title>
<path fill="none" stroke="black" d="M599.01,-692.42C606.42,-697.08 613.12,-702.85 618,-710 714.41,-851.24 740.16,-2140.52 743.78,-2354.09"/>
<polygon fill="black" stroke="black" points="740.28,-2354.11 743.94,-2364.05 747.27,-2353.99 740.28,-2354.11"/>
</g>
<!-- n32 -->
<g id="node43" class="node">
<title>n32</title>
<path fill="lightblue" stroke="black" d="M557.12,-3932C557.12,-3932 527.12,-3932 527.12,-3932 521.12,-3932 515.12,-3926 515.12,-3920 515.12,-3920 515.12,-3908 515.12,-3908 515.12,-3902 521.12,-3896 527.12,-3896 527.12,-3896 557.12,-3896 557.12,-3896 563.12,-3896 569.12,-3902 569.12,-3908 569.12,-3908 569.12,-3920 569.12,-3920 569.12,-3926 563.12,-3932 557.12,-3932"/>
<text xml:space="preserve" text-anchor="middle" x="542.12" y="-3908.95" font-family="Times,serif" font-size="14.00">multus</text>
</g>
<!-- n32&#45;&gt;n28 -->
<g id="edge75" class="edge">
<title>n32&#45;&gt;n28</title>
<path fill="none" stroke="black" d="M569.35,-3908.44C586.13,-3903.44 606.79,-3894.27 618,-3878 704.23,-3752.9 738.19,-2613.22 743.49,-2413.73"/>
<polygon fill="black" stroke="black" points="746.99,-2414.05 743.75,-2403.97 739.99,-2413.87 746.99,-2414.05"/>
</g>
<!-- n39 -->
<g id="node44" class="node">
<title>n39</title>
<path fill="lightblue" stroke="black" d="M347.75,-1017C347.75,-1017 257.5,-1017 257.5,-1017 251.5,-1017 245.5,-1011 245.5,-1005 245.5,-1005 245.5,-993 245.5,-993 245.5,-987 251.5,-981 257.5,-981 257.5,-981 347.75,-981 347.75,-981 353.75,-981 359.75,-987 359.75,-993 359.75,-993 359.75,-1005 359.75,-1005 359.75,-1011 353.75,-1017 347.75,-1017"/>
<text xml:space="preserve" text-anchor="middle" x="302.62" y="-993.95" font-family="Times,serif" font-size="14.00">mysql&#45;application</text>
</g>
<!-- n39&#45;&gt;n56 -->
<g id="edge77" class="edge">
<title>n39&#45;&gt;n56</title>
<path fill="none" stroke="black" d="M318.54,-980.59C339.06,-954.22 375.58,-903.43 394.25,-854 463.65,-670.27 348.46,-575.16 466.25,-418 469.35,-413.86 473.05,-410.18 477.12,-406.9"/>
<polygon fill="black" stroke="black" points="479.08,-409.8 485.29,-401.22 475.09,-404.05 479.08,-409.8"/>
</g>
<!-- n39&#45;&gt;n28 -->
<g id="edge76" class="edge">
<title>n39&#45;&gt;n28</title>
<path fill="none" stroke="black" d="M347.05,-1017.47C429.3,-1052.85 601.14,-1128.82 618,-1153 689.01,-1254.87 734.73,-2176.79 742.92,-2354.45"/>
<polygon fill="black" stroke="black" points="739.43,-2354.59 743.38,-2364.42 746.42,-2354.27 739.43,-2354.59"/>
</g>
<!-- n20 -->
<g id="node45" class="node">
<title>n20</title>
<path fill="lightblue" stroke="black" d="M581.25,-2872C581.25,-2872 503,-2872 503,-2872 497,-2872 491,-2866 491,-2860 491,-2860 491,-2848 491,-2848 491,-2842 497,-2836 503,-2836 503,-2836 581.25,-2836 581.25,-2836 587.25,-2836 593.25,-2842 593.25,-2848 593.25,-2848 593.25,-2860 593.25,-2860 593.25,-2866 587.25,-2872 581.25,-2872"/>
<text xml:space="preserve" text-anchor="middle" x="542.12" y="-2848.95" font-family="Times,serif" font-size="14.00">nats&#45;application</text>
</g>
<!-- n20&#45;&gt;n28 -->
<g id="edge78" class="edge">
<title>n20&#45;&gt;n28</title>
<path fill="none" stroke="black" d="M593.55,-2837.01C602.67,-2832.06 611.38,-2825.81 618,-2818 722.27,-2694.93 740.49,-2489.68 743.62,-2413.58"/>
<polygon fill="black" stroke="black" points="747.12,-2413.73 743.96,-2403.62 740.12,-2413.49 747.12,-2413.73"/>
</g>
<!-- n28&#45;&gt;n13 -->
<g id="edge79" class="edge">
<title>n28&#45;&gt;n13</title>
<path fill="none" stroke="black" d="M748.91,-2365.71C766.92,-2268.34 871.34,-1839.22 905.03,-1720.93"/>
<polygon fill="black" stroke="black" points="908.3,-1722.2 907.73,-1711.63 901.58,-1720.25 908.3,-1722.2"/>
</g>
<!-- n28&#45;&gt;n13 -->
<g id="edge80" class="edge">
<title>n28&#45;&gt;n13</title>
<path fill="none" stroke="black" d="M753.63,-2365.71C782.45,-2268.71 886.96,-1840.7 910.69,-1721.47"/>
<polygon fill="black" stroke="black" points="914.1,-1722.27 912.55,-1711.79 907.22,-1720.95 914.1,-1722.27"/>
</g>
<!-- n25 -->
<g id="node47" class="node">
<title>n25</title>
<path fill="lightblue" stroke="black" d="M564.75,-2800C564.75,-2800 519.5,-2800 519.5,-2800 513.5,-2800 507.5,-2794 507.5,-2788 507.5,-2788 507.5,-2776 507.5,-2776 507.5,-2770 513.5,-2764 519.5,-2764 519.5,-2764 564.75,-2764 564.75,-2764 570.75,-2764 576.75,-2770 576.75,-2776 576.75,-2776 576.75,-2788 576.75,-2788 576.75,-2794 570.75,-2800 564.75,-2800"/>
<text xml:space="preserve" text-anchor="middle" x="542.12" y="-2776.95" font-family="Times,serif" font-size="14.00">nfs&#45;driver</text>
</g>
<!-- n25&#45;&gt;n28 -->
<g id="edge81" class="edge">
<title>n25&#45;&gt;n28</title>
<path fill="none" stroke="black" d="M576.95,-2772.23C591.28,-2766.59 607.14,-2758.16 618,-2746 706.91,-2646.46 734,-2480.76 741.56,-2413.61"/>
<polygon fill="black" stroke="black" points="745.03,-2414.08 742.6,-2403.76 738.07,-2413.34 745.03,-2414.08"/>
</g>
<!-- n29&#45;&gt;n28 -->
<g id="edge82" class="edge">
<title>n29&#45;&gt;n28</title>
<path fill="none" stroke="black" d="M587.99,-1490.35C599.45,-1497.1 610.61,-1505.89 618,-1517 712.58,-1659.14 738.37,-2218.7 743.28,-2354.29"/>
<polygon fill="black" stroke="black" points="739.78,-2354.34 743.63,-2364.21 746.78,-2354.1 739.78,-2354.34"/>
</g>
<!-- n11 -->
<g id="node49" class="node">
<title>n11</title>
<path fill="lightblue" stroke="black" d="M592.88,-2728C592.88,-2728 491.38,-2728 491.38,-2728 485.38,-2728 479.38,-2722 479.38,-2716 479.38,-2716 479.38,-2704 479.38,-2704 479.38,-2698 485.38,-2692 491.38,-2692 491.38,-2692 592.88,-2692 592.88,-2692 598.88,-2692 604.88,-2698 604.88,-2704 604.88,-2704 604.88,-2716 604.88,-2716 604.88,-2722 598.88,-2728 592.88,-2728"/>
<text xml:space="preserve" text-anchor="middle" x="542.12" y="-2704.95" font-family="Times,serif" font-size="14.00">postgres&#45;application</text>
</g>
<!-- n11&#45;&gt;n28 -->
<g id="edge83" class="edge">
<title>n11&#45;&gt;n28</title>
<path fill="none" stroke="black" d="M593.95,-2691.7C602.72,-2686.92 611.2,-2681.06 618,-2674 691.79,-2597.38 726.2,-2470.66 738.57,-2413.54"/>
<polygon fill="black" stroke="black" points="741.96,-2414.43 740.57,-2403.93 735.11,-2413 741.96,-2414.43"/>
</g>
<!-- n16 -->
<g id="node51" class="node">
<title>n16</title>
<path fill="lightblue" stroke="black" d="M355.62,-3824C355.62,-3824 249.62,-3824 249.62,-3824 243.62,-3824 237.62,-3818 237.62,-3812 237.62,-3812 237.62,-3800 237.62,-3800 237.62,-3794 243.62,-3788 249.62,-3788 249.62,-3788 355.62,-3788 355.62,-3788 361.62,-3788 367.62,-3794 367.62,-3800 367.62,-3800 367.62,-3812 367.62,-3812 367.62,-3818 361.62,-3824 355.62,-3824"/>
<text xml:space="preserve" text-anchor="middle" x="302.62" y="-3800.95" font-family="Times,serif" font-size="14.00">rabbitmq&#45;application</text>
</g>
<!-- n16&#45;&gt;n28 -->
<g id="edge84" class="edge">
<title>n16&#45;&gt;n28</title>
<path fill="none" stroke="black" d="M367.92,-3810.97C440.42,-3812.68 556.23,-3802.93 618,-3732 707.64,-3629.07 738.55,-2603.14 743.51,-2413.92"/>
<polygon fill="black" stroke="black" points="747.01,-2414.05 743.76,-2403.97 740.01,-2413.87 747.01,-2414.05"/>
</g>
<!-- n5 -->
<g id="node52" class="node">
<title>n5</title>
<path fill="lightblue" stroke="black" d="M587.62,-3860C587.62,-3860 496.62,-3860 496.62,-3860 490.62,-3860 484.62,-3854 484.62,-3848 484.62,-3848 484.62,-3836 484.62,-3836 484.62,-3830 490.62,-3824 496.62,-3824 496.62,-3824 587.62,-3824 587.62,-3824 593.62,-3824 599.62,-3830 599.62,-3836 599.62,-3836 599.62,-3848 599.62,-3848 599.62,-3854 593.62,-3860 587.62,-3860"/>
<text xml:space="preserve" text-anchor="middle" x="542.12" y="-3836.95" font-family="Times,serif" font-size="14.00">rabbitmq&#45;operator</text>
</g>
<!-- n16&#45;&gt;n5 -->
<g id="edge85" class="edge">
<title>n16&#45;&gt;n5</title>
<path fill="none" stroke="black" d="M367.9,-3815.74C400.6,-3820.7 440.35,-3826.72 473.52,-3831.75"/>
<polygon fill="black" stroke="black" points="472.59,-3835.15 483,-3833.19 473.63,-3828.23 472.59,-3835.15"/>
</g>
<!-- n5&#45;&gt;n28 -->
<g id="edge86" class="edge">
<title>n5&#45;&gt;n28</title>
<path fill="none" stroke="black" d="M588.78,-3823.68C600.11,-3816.96 611,-3808.18 618,-3797 694.05,-3675.53 736.18,-2606.81 743.2,-2413.81"/>
<polygon fill="black" stroke="black" points="746.69,-2414.01 743.56,-2403.89 739.7,-2413.76 746.69,-2414.01"/>
</g>
<!-- n26 -->
<g id="node53" class="node">
<title>n26</title>
<path fill="lightblue" stroke="black" d="M344,-3678C344,-3678 261.25,-3678 261.25,-3678 255.25,-3678 249.25,-3672 249.25,-3666 249.25,-3666 249.25,-3654 249.25,-3654 249.25,-3648 255.25,-3642 261.25,-3642 261.25,-3642 344,-3642 344,-3642 350,-3642 356,-3648 356,-3654 356,-3654 356,-3666 356,-3666 356,-3672 350,-3678 344,-3678"/>
<text xml:space="preserve" text-anchor="middle" x="302.62" y="-3654.95" font-family="Times,serif" font-size="14.00">redis&#45;application</text>
</g>
<!-- n26&#45;&gt;n28 -->
<g id="edge87" class="edge">
<title>n26&#45;&gt;n28</title>
<path fill="none" stroke="black" d="M356.22,-3664.48C427.23,-3667.34 552.4,-3660.47 618,-3586 698.08,-3495.09 736.43,-2589.88 743.16,-2413.65"/>
<polygon fill="black" stroke="black" points="746.65,-2413.88 743.53,-2403.75 739.66,-2413.61 746.65,-2413.88"/>
</g>
<!-- n27 -->
<g id="node54" class="node">
<title>n27</title>
<path fill="lightblue" stroke="black" d="M576,-3714C576,-3714 508.25,-3714 508.25,-3714 502.25,-3714 496.25,-3708 496.25,-3702 496.25,-3702 496.25,-3690 496.25,-3690 496.25,-3684 502.25,-3678 508.25,-3678 508.25,-3678 576,-3678 576,-3678 582,-3678 588,-3684 588,-3690 588,-3690 588,-3702 588,-3702 588,-3708 582,-3714 576,-3714"/>
<text xml:space="preserve" text-anchor="middle" x="542.12" y="-3690.95" font-family="Times,serif" font-size="14.00">redis&#45;operator</text>
</g>
<!-- n26&#45;&gt;n27 -->
<g id="edge88" class="edge">
<title>n26&#45;&gt;n27</title>
<path fill="none" stroke="black" d="M356.33,-3667.99C394.31,-3673.75 445.51,-3681.51 484.38,-3687.4"/>
<polygon fill="black" stroke="black" points="483.85,-3690.86 494.27,-3688.9 484.9,-3683.94 483.85,-3690.86"/>
</g>
<!-- n27&#45;&gt;n28 -->
<g id="edge89" class="edge">
<title>n27&#45;&gt;n28</title>
<path fill="none" stroke="black" d="M588.32,-3677.86C599.78,-3671.12 610.86,-3662.28 618,-3651 686.46,-3542.88 734.37,-2593.72 742.89,-2413.48"/>
<polygon fill="black" stroke="black" points="746.38,-2413.74 743.35,-2403.58 739.39,-2413.41 746.38,-2413.74"/>
</g>
<!-- n19&#45;&gt;n28 -->
<g id="edge90" class="edge">
<title>n19&#45;&gt;n28</title>
<path fill="none" stroke="black" d="M572.6,-463.91C588.87,-471.01 607.8,-482.3 618,-499 668.54,-581.76 733.46,-2120.61 743.05,-2354.35"/>
<polygon fill="black" stroke="black" points="739.54,-2354.27 743.45,-2364.11 746.53,-2353.98 739.54,-2354.27"/>
</g>
<!-- n67 -->
<g id="node56" class="node">
<title>n67</title>
<path fill="lightblue" stroke="black" d="M598.12,-836C598.12,-836 486.12,-836 486.12,-836 480.12,-836 474.12,-830 474.12,-824 474.12,-824 474.12,-812 474.12,-812 474.12,-806 480.12,-800 486.12,-800 486.12,-800 598.12,-800 598.12,-800 604.12,-800 610.12,-806 610.12,-812 610.12,-812 610.12,-824 610.12,-824 610.12,-830 604.12,-836 598.12,-836"/>
<text xml:space="preserve" text-anchor="middle" x="542.12" y="-812.95" font-family="Times,serif" font-size="14.00">seaweedfs&#45;application</text>
</g>
<!-- n67&#45;&gt;n28 -->
<g id="edge91" class="edge">
<title>n67&#45;&gt;n28</title>
<path fill="none" stroke="black" d="M598.96,-836.46C606.38,-841.1 613.1,-846.87 618,-854 706.26,-982.32 738.6,-2151.72 743.55,-2354.2"/>
<polygon fill="black" stroke="black" points="740.05,-2354.2 743.79,-2364.11 747.05,-2354.03 740.05,-2354.2"/>
</g>
<!-- n12 -->
<g id="node57" class="node">
<title>n12</title>
<path fill="lightblue" stroke="black" d="M590.25,-328C590.25,-328 494,-328 494,-328 488,-328 482,-322 482,-316 482,-316 482,-304 482,-304 482,-298 488,-292 494,-292 494,-292 590.25,-292 590.25,-292 596.25,-292 602.25,-298 602.25,-304 602.25,-304 602.25,-316 602.25,-316 602.25,-322 596.25,-328 590.25,-328"/>
<text xml:space="preserve" text-anchor="middle" x="542.12" y="-304.95" font-family="Times,serif" font-size="14.00">snapshot&#45;controller</text>
</g>
<!-- n12&#45;&gt;n13 -->
<g id="edge93" class="edge">
<title>n12&#45;&gt;n13</title>
<path fill="none" stroke="black" d="M587.12,-328.42C597.58,-333.54 608.47,-339.49 618,-346 709.55,-408.5 751.37,-416.63 800.5,-516 904.62,-726.59 914.48,-1501.66 915.41,-1662.61"/>
<polygon fill="black" stroke="black" points="911.91,-1662.42 915.45,-1672.41 918.91,-1662.39 911.91,-1662.42"/>
</g>
<!-- n12&#45;&gt;n28 -->
<g id="edge92" class="edge">
<title>n12&#45;&gt;n28</title>
<path fill="none" stroke="black" d="M599.09,-328.37C606.49,-333.03 613.17,-338.82 618,-346 676.69,-433.23 735.03,-2109.17 743.26,-2354.21"/>
<polygon fill="black" stroke="black" points="739.76,-2354.28 743.59,-2364.16 746.76,-2354.05 739.76,-2354.28"/>
</g>
<!-- n21 -->
<g id="node58" class="node">
<title>n21</title>
<path fill="lightblue" stroke="black" d="M603.75,-2656C603.75,-2656 480.5,-2656 480.5,-2656 474.5,-2656 468.5,-2650 468.5,-2644 468.5,-2644 468.5,-2632 468.5,-2632 468.5,-2626 474.5,-2620 480.5,-2620 480.5,-2620 603.75,-2620 603.75,-2620 609.75,-2620 615.75,-2626 615.75,-2632 615.75,-2632 615.75,-2644 615.75,-2644 615.75,-2650 609.75,-2656 603.75,-2656"/>
<text xml:space="preserve" text-anchor="middle" x="542.12" y="-2632.95" font-family="Times,serif" font-size="14.00">tcp&#45;balancer&#45;application</text>
</g>
<!-- n21&#45;&gt;n28 -->
<g id="edge94" class="edge">
<title>n21&#45;&gt;n28</title>
<path fill="none" stroke="black" d="M592.14,-2619.67C601.38,-2614.83 610.49,-2608.96 618,-2602 677.17,-2547.21 716.59,-2458.26 734.03,-2412.78"/>
<polygon fill="black" stroke="black" points="737.23,-2414.21 737.45,-2403.62 730.67,-2411.76 737.23,-2414.21"/>
</g>
<!-- n33 -->
<g id="node59" class="node">
<title>n33</title>
<path fill="lightblue" stroke="black" d="M571.5,-2584C571.5,-2584 512.75,-2584 512.75,-2584 506.75,-2584 500.75,-2578 500.75,-2572 500.75,-2572 500.75,-2560 500.75,-2560 500.75,-2554 506.75,-2548 512.75,-2548 512.75,-2548 571.5,-2548 571.5,-2548 577.5,-2548 583.5,-2554 583.5,-2560 583.5,-2560 583.5,-2572 583.5,-2572 583.5,-2578 577.5,-2584 571.5,-2584"/>
<text xml:space="preserve" text-anchor="middle" x="542.12" y="-2560.95" font-family="Times,serif" font-size="14.00">telepresence</text>
</g>
<!-- n33&#45;&gt;n28 -->
<g id="edge95" class="edge">
<title>n33&#45;&gt;n28</title>
<path fill="none" stroke="black" d="M578.41,-2547.57C591.4,-2540.08 605.89,-2530.87 618,-2521 659.18,-2487.45 699.48,-2440.56 723.08,-2411.26"/>
<polygon fill="black" stroke="black" points="725.7,-2413.59 729.2,-2403.59 720.23,-2409.23 725.7,-2413.59"/>
</g>
<!-- n57 -->
<g id="node60" class="node">
<title>n57</title>
<path fill="lightblue" stroke="black" d="M347.38,-836C347.38,-836 257.88,-836 257.88,-836 251.88,-836 245.88,-830 245.88,-824 245.88,-824 245.88,-812 245.88,-812 245.88,-806 251.88,-800 257.88,-800 257.88,-800 347.38,-800 347.38,-800 353.38,-800 359.38,-806 359.38,-812 359.38,-812 359.38,-824 359.38,-824 359.38,-830 353.38,-836 347.38,-836"/>
<text xml:space="preserve" text-anchor="middle" x="302.62" y="-812.95" font-family="Times,serif" font-size="14.00">tenant&#45;application</text>
</g>
<!-- n57&#45;&gt;n45 -->
<g id="edge101" class="edge">
<title>n57&#45;&gt;n45</title>
<path fill="none" stroke="black" d="M316.5,-836.49C341.78,-871.73 401.16,-949.32 466.25,-998 472.23,-1002.47 478.84,-1006.6 485.6,-1010.35"/>
<polygon fill="black" stroke="black" points="483.72,-1013.32 494.2,-1014.86 486.97,-1007.12 483.72,-1013.32"/>
</g>
<!-- n57&#45;&gt;n7 -->
<g id="edge102" class="edge">
<title>n57&#45;&gt;n7</title>
<path fill="none" stroke="black" d="M359.61,-801.03C395.68,-790.09 442.6,-775.87 479.69,-764.62"/>
<polygon fill="black" stroke="black" points="480.37,-768.08 488.93,-761.82 478.34,-761.38 480.37,-768.08"/>
</g>
<!-- n57&#45;&gt;n66 -->
<g id="edge99" class="edge">
<title>n57&#45;&gt;n66</title>
<path fill="none" stroke="black" d="M328.84,-836.34C360.24,-858.78 415.87,-897.34 466.25,-926 473.83,-930.31 482.01,-934.6 490.08,-938.62"/>
<polygon fill="black" stroke="black" points="488.31,-941.65 498.83,-942.91 491.38,-935.37 488.31,-941.65"/>
</g>
<!-- n57&#45;&gt;n59 -->
<g id="edge97" class="edge">
<title>n57&#45;&gt;n59</title>
<path fill="none" stroke="black" d="M359.61,-834.97C393.16,-845.14 436.1,-858.16 471.8,-868.98"/>
<polygon fill="black" stroke="black" points="470.59,-872.27 481.17,-871.82 472.62,-865.57 470.59,-872.27"/>
</g>
<!-- n57&#45;&gt;n47 -->
<g id="edge100" class="edge">
<title>n57&#45;&gt;n47</title>
<path fill="none" stroke="black" d="M328.84,-799.66C360.24,-777.22 415.87,-738.66 466.25,-710 473.83,-705.69 482.01,-701.4 490.08,-697.38"/>
<polygon fill="black" stroke="black" points="491.38,-700.63 498.83,-693.09 488.31,-694.35 491.38,-700.63"/>
</g>
<!-- n57&#45;&gt;n28 -->
<g id="edge96" class="edge">
<title>n57&#45;&gt;n28</title>
<path fill="none" stroke="black" d="M313.15,-799.68C334.44,-761.02 390.04,-671.85 466.25,-638 527.89,-610.62 568.62,-592.06 618,-638 683.58,-699.01 735.46,-2128.87 743.24,-2354.22"/>
<polygon fill="black" stroke="black" points="739.74,-2354.31 743.58,-2364.18 746.74,-2354.07 739.74,-2354.31"/>
</g>
<!-- n57&#45;&gt;n67 -->
<g id="edge98" class="edge">
<title>n57&#45;&gt;n67</title>
<path fill="none" stroke="black" d="M359.61,-818C390.29,-818 428.81,-818 462.47,-818"/>
<polygon fill="black" stroke="black" points="462.16,-821.5 472.16,-818 462.16,-814.5 462.16,-821.5"/>
</g>
<!-- n44 -->
<g id="node61" class="node">
<title>n44</title>
<path fill="lightblue" stroke="black" d="M84.5,-2001C84.5,-2001 54.5,-2001 54.5,-2001 48.5,-2001 42.5,-1995 42.5,-1989 42.5,-1989 42.5,-1977 42.5,-1977 42.5,-1971 48.5,-1965 54.5,-1965 54.5,-1965 84.5,-1965 84.5,-1965 90.5,-1965 96.5,-1971 96.5,-1977 96.5,-1977 96.5,-1989 96.5,-1989 96.5,-1995 90.5,-2001 84.5,-2001"/>
<text xml:space="preserve" text-anchor="middle" x="69.5" y="-1977.95" font-family="Times,serif" font-size="14.00">velero</text>
</g>
<!-- n44&#45;&gt;n24 -->
<g id="edge104" class="edge">
<title>n44&#45;&gt;n24</title>
<path fill="none" stroke="black" d="M96.56,-1966.65C137.12,-1941.2 215.58,-1891.98 262.82,-1862.35"/>
<polygon fill="black" stroke="black" points="264.5,-1865.42 271.11,-1857.14 260.78,-1859.49 264.5,-1865.42"/>
</g>
<!-- n44&#45;&gt;n28 -->
<g id="edge103" class="edge">
<title>n44&#45;&gt;n28</title>
<path fill="none" stroke="black" d="M96.9,-1987.98C180.99,-2004.93 447.03,-2067.02 618,-2203 671.31,-2245.4 711.46,-2316.2 731.02,-2355.51"/>
<polygon fill="black" stroke="black" points="727.8,-2356.89 735.33,-2364.35 734.1,-2353.83 727.8,-2356.89"/>
</g>
<!-- n38&#45;&gt;n24 -->
<g id="edge106" class="edge">
<title>n38&#45;&gt;n24</title>
<path fill="none" stroke="black" d="M471.6,-2039.8C469.77,-2038.56 467.98,-2037.3 466.25,-2036 400.82,-1987.07 341.16,-1908.93 316.11,-1866.11"/>
<polygon fill="black" stroke="black" points="319.29,-1864.64 311.37,-1857.6 313.17,-1868.04 319.29,-1864.64"/>
</g>
<!-- n38&#45;&gt;n28 -->
<g id="edge105" class="edge">
<title>n38&#45;&gt;n28</title>
<path fill="none" stroke="black" d="M583.79,-2072.42C595.96,-2079.41 608.56,-2088.31 618,-2099 686.91,-2177.04 723.55,-2298.74 737.5,-2354.41"/>
<polygon fill="black" stroke="black" points="734.09,-2355.19 739.85,-2364.08 740.89,-2353.54 734.09,-2355.19"/>
</g>
<!-- n49&#45;&gt;n13 -->
<g id="edge108" class="edge">
<title>n49&#45;&gt;n13</title>
<path fill="none" stroke="black" d="M618.48,-1692C690.3,-1692 796.72,-1692 860.77,-1692"/>
<polygon fill="black" stroke="black" points="860.71,-1695.5 870.71,-1692 860.71,-1688.5 860.71,-1695.5"/>
</g>
<!-- n49&#45;&gt;n28 -->
<g id="edge107" class="edge">
<title>n49&#45;&gt;n28</title>
<path fill="none" stroke="black" d="M587.25,-1710.35C598.84,-1717.14 610.25,-1725.95 618,-1737 690,-1839.76 731.29,-2241.18 741.65,-2354.23"/>
<polygon fill="black" stroke="black" points="738.16,-2354.54 742.55,-2364.19 745.13,-2353.91 738.16,-2354.54"/>
</g>
<!-- n34 -->
<g id="node64" class="node">
<title>n34</title>
<path fill="lightblue" stroke="black" d="M374,-2365C374,-2365 231.25,-2365 231.25,-2365 225.25,-2365 219.25,-2359 219.25,-2353 219.25,-2353 219.25,-2341 219.25,-2341 219.25,-2335 225.25,-2329 231.25,-2329 231.25,-2329 374,-2329 374,-2329 380,-2329 386,-2335 386,-2341 386,-2341 386,-2353 386,-2353 386,-2359 380,-2365 374,-2365"/>
<text xml:space="preserve" text-anchor="middle" x="302.62" y="-2341.95" font-family="Times,serif" font-size="14.00">virtual&#45;machine&#45;application</text>
</g>
<!-- n34&#45;&gt;n61 -->
<g id="edge110" class="edge">
<title>n34&#45;&gt;n61</title>
<path fill="none" stroke="black" d="M363.56,-2365.42C406.46,-2378.61 463.06,-2396 500.7,-2407.57"/>
<polygon fill="black" stroke="black" points="499.23,-2410.78 509.82,-2410.38 501.29,-2404.09 499.23,-2410.78"/>
</g>
<!-- n34&#45;&gt;n31 -->
<g id="edge111" class="edge">
<title>n34&#45;&gt;n31</title>
<path fill="none" stroke="black" d="M363.56,-2328.58C402.58,-2316.58 452.94,-2301.11 490.05,-2289.7"/>
<polygon fill="black" stroke="black" points="490.66,-2293.17 499.19,-2286.89 488.6,-2286.48 490.66,-2293.17"/>
</g>
<!-- n34&#45;&gt;n28 -->
<g id="edge109" class="edge">
<title>n34&#45;&gt;n28</title>
<path fill="none" stroke="black" d="M386.24,-2353.94C477.07,-2361.56 620.02,-2373.57 694.85,-2379.85"/>
<polygon fill="black" stroke="black" points="694.49,-2383.33 704.75,-2380.68 695.07,-2376.36 694.49,-2383.33"/>
</g>
<!-- n6 -->
<g id="node65" class="node">
<title>n6</title>
<path fill="lightblue" stroke="black" d="M382.25,-3969C382.25,-3969 223,-3969 223,-3969 217,-3969 211,-3963 211,-3957 211,-3957 211,-3945 211,-3945 211,-3939 217,-3933 223,-3933 223,-3933 382.25,-3933 382.25,-3933 388.25,-3933 394.25,-3939 394.25,-3945 394.25,-3945 394.25,-3957 394.25,-3957 394.25,-3963 388.25,-3969 382.25,-3969"/>
<text xml:space="preserve" text-anchor="middle" x="302.62" y="-3945.95" font-family="Times,serif" font-size="14.00">virtualprivatecloud&#45;application</text>
</g>
<!-- n6&#45;&gt;n32 -->
<g id="edge113" class="edge">
<title>n6&#45;&gt;n32</title>
<path fill="none" stroke="black" d="M394.43,-3936.85C432.3,-3930.95 474.18,-3924.43 503.47,-3919.87"/>
<polygon fill="black" stroke="black" points="503.97,-3923.33 513.32,-3918.33 502.9,-3916.41 503.97,-3923.33"/>
</g>
<!-- n6&#45;&gt;n28 -->
<g id="edge112" class="edge">
<title>n6&#45;&gt;n28</title>
<path fill="none" stroke="black" d="M354.41,-3969.43C423.61,-3990.91 547,-4015.71 618,-3950 676.73,-3895.64 733.89,-2624.71 742.99,-2413.59"/>
<polygon fill="black" stroke="black" points="746.48,-2413.91 743.41,-2403.77 739.49,-2413.61 746.48,-2413.91"/>
</g>
<!-- n63 -->
<g id="node66" class="node">
<title>n63</title>
<path fill="lightblue" stroke="black" d="M353.38,-2256C353.38,-2256 251.88,-2256 251.88,-2256 245.88,-2256 239.88,-2250 239.88,-2244 239.88,-2244 239.88,-2232 239.88,-2232 239.88,-2226 245.88,-2220 251.88,-2220 251.88,-2220 353.38,-2220 353.38,-2220 359.38,-2220 365.38,-2226 365.38,-2232 365.38,-2232 365.38,-2244 365.38,-2244 365.38,-2250 359.38,-2256 353.38,-2256"/>
<text xml:space="preserve" text-anchor="middle" x="302.62" y="-2232.95" font-family="Times,serif" font-size="14.00">vm&#45;disk&#45;application</text>
</g>
<!-- n63&#45;&gt;n31 -->
<g id="edge115" class="edge">
<title>n63&#45;&gt;n31</title>
<path fill="none" stroke="black" d="M365.72,-2247.41C404.16,-2253.24 452.96,-2260.64 489.32,-2266.15"/>
<polygon fill="black" stroke="black" points="488.75,-2269.6 499.16,-2267.64 489.8,-2262.68 488.75,-2269.6"/>
</g>
<!-- n63&#45;&gt;n28 -->
<g id="edge114" class="edge">
<title>n63&#45;&gt;n28</title>
<path fill="none" stroke="black" d="M365.61,-2223.41C431.44,-2211.15 536.97,-2200.95 618,-2238 670.98,-2262.23 710.22,-2320.87 729.96,-2356.02"/>
<polygon fill="black" stroke="black" points="726.64,-2357.26 734.5,-2364.36 732.79,-2353.91 726.64,-2357.26"/>
</g>
<!-- n68 -->
<g id="node67" class="node">
<title>n68</title>
<path fill="lightblue" stroke="black" d="M364.25,-2475C364.25,-2475 241,-2475 241,-2475 235,-2475 229,-2469 229,-2463 229,-2463 229,-2451 229,-2451 229,-2445 235,-2439 241,-2439 241,-2439 364.25,-2439 364.25,-2439 370.25,-2439 376.25,-2445 376.25,-2451 376.25,-2451 376.25,-2463 376.25,-2463 376.25,-2469 370.25,-2475 364.25,-2475"/>
<text xml:space="preserve" text-anchor="middle" x="302.62" y="-2451.95" font-family="Times,serif" font-size="14.00">vm&#45;instance&#45;application</text>
</g>
<!-- n68&#45;&gt;n61 -->
<g id="edge117" class="edge">
<title>n68&#45;&gt;n61</title>
<path fill="none" stroke="black" d="M376.5,-2445.65C416.99,-2439.34 465.9,-2431.72 499.83,-2426.43"/>
<polygon fill="black" stroke="black" points="500.34,-2429.9 509.68,-2424.9 499.26,-2422.98 500.34,-2429.9"/>
</g>
<!-- n68&#45;&gt;n28 -->
<g id="edge116" class="edge">
<title>n68&#45;&gt;n28</title>
<path fill="none" stroke="black" d="M376.48,-2467.13C441.1,-2473.69 537.45,-2477.49 618,-2456 652.44,-2446.81 687.31,-2425.84 711.65,-2408.89"/>
<polygon fill="black" stroke="black" points="713.42,-2411.93 719.53,-2403.27 709.35,-2406.23 713.42,-2411.93"/>
</g>
<!-- n60 -->
<g id="node68" class="node">
<title>n60</title>
<path fill="lightblue" stroke="black" d="M580.5,-2000C580.5,-2000 503.75,-2000 503.75,-2000 497.75,-2000 491.75,-1994 491.75,-1988 491.75,-1988 491.75,-1976 491.75,-1976 491.75,-1970 497.75,-1964 503.75,-1964 503.75,-1964 580.5,-1964 580.5,-1964 586.5,-1964 592.5,-1970 592.5,-1976 592.5,-1976 592.5,-1988 592.5,-1988 592.5,-1994 586.5,-2000 580.5,-2000"/>
<text xml:space="preserve" text-anchor="middle" x="542.12" y="-1976.95" font-family="Times,serif" font-size="14.00">vpn&#45;application</text>
</g>
<!-- n60&#45;&gt;n28 -->
<g id="edge118" class="edge">
<title>n60&#45;&gt;n28</title>
<path fill="none" stroke="black" d="M592.86,-1999.04C602.15,-2004 611.09,-2010.24 618,-2018 707.81,-2118.88 734.41,-2286.88 741.7,-2354.49"/>
<polygon fill="black" stroke="black" points="738.18,-2354.44 742.67,-2364.04 745.15,-2353.74 738.18,-2354.44"/>
</g>
</g>
</svg>
